# Object Export From Tinkercad Server 2015

mtllib obj.mtl

o obj_0
v -23.055 		-22.353 		0
v -23.104 		-22.396 		0
v -23.147 		-22.445 		0
v -23.183 		-22.5 		0
v -26 		-23.253 		2.85
v -22.75 		-25.298 		0
v -25.877 		-23.253 		2.85
v -25.877 		-23.253 		2.646
v -26 		-23.253 		2.646
v -23.229 		-27.707 		0
v -23.212 		-22.558 		0
v -22.328 		-27.729 		0
v -23.212 		-22.941 		0
v -23.183 		-23 		0
v -25.877 		-22.748 		2.85
v -22.328 		-27.729 		0.248
v -23.286 		-27.682 		0
v -26 		-22.748 		2.85
v -26 		-22.748 		2.646
v -25.877 		-22.748 		2.646
v -22.271 		-27.707 		0.248
v -22.271 		-27.707 		0
v -22.386 		-27.749 		0
v -22.386 		-27.749 		0.248
v -21.645 		-25.96 		0.248
v -22.446 		-27.765 		0
v -21.618 		-26.014 		0.248
v -22.446 		-27.765 		0.248
v -19.5 		-17 		2.998
v -23.25 		-22.75 		0.248
v -21.593 		-26.071 		0.248
v -19.5 		-17 		0
v -23.34 		-27.655 		0
v -19.5 		-22.748 		2.85
v -19.5 		-22.748 		2.646
v -23.394 		-27.624 		0
v -24.752 		-22.75 		0.248
v -22.506 		-27.778 		0
v -22.506 		-27.778 		0.248
v -24.752 		-17.248 		0.248
v -23.446 		-27.591 		0
v -22.566 		-27.789 		0
v -19.5 		-23.253 		2.646
v -19.5 		-23.253 		2.85
v -22.566 		-27.789 		0.248
v -23.496 		-27.556 		0
v -22.75 		-19.248 		0.248
v -22.627 		-27.796 		0
v -22.627 		-27.796 		0.248
v -23.545 		-27.518 		0
v -22.689 		-27.801 		0
v -22.75 		-22.25 		0.248
v -22.689 		-27.801 		0.248
v -24.752 		-22.75 		0
v -22.75 		-22.25 		0
v -24.752 		-21.249 		0.248
v -23.233 		-22.62 		0
v -24.752 		-21.249 		0
v -22.75 		-20.249 		0.248
v -19.5 		-29 		2.998
v -19.5 		-29 		0
v -23.246 		-22.685 		0
v -22.75 		-27.803 		0
v -22.75 		-27.803 		0.248
v -23.591 		-27.478 		0
v -22.685 		-20.245 		0.248
v -23.25 		-22.75 		0
v -22.685 		-20.245 		0
v -22.811 		-27.801 		0
v -22.811 		-27.801 		0.248
v -23.636 		-27.436 		0
v -23.246 		-22.815 		0
v -23.678 		-27.391 		0
v -22.873 		-27.796 		0
v -22.873 		-27.796 		0.248
v -22.62 		-20.232 		0.248
v -22.62 		-20.232 		0
v -22.25 		-19.749 		0.248
v -23.233 		-22.879 		0
v -23.718 		-27.345 		0
v -23.756 		-27.296 		0
v -22.934 		-27.789 		0
v -22.934 		-27.789 		0.248
v -22.685 		-23.246 		0.248
v -23.791 		-27.246 		0
v -26 		-17 		0
v -22.685 		-23.246 		0
v -22.558 		-20.211 		0.248
v -22.558 		-20.211 		0
v -22.25 		-22.75 		0.248
v -26 		-17 		2.998
v -22.994 		-27.778 		0
v -22.994 		-27.778 		0.248
v -22.62 		-23.233 		0.248
v -22.62 		-23.233 		0
v -22.5 		-20.182 		0.248
v -22.5 		-20.182 		0
v -26 		-29 		2.998
v -23.054 		-27.765 		0
v -23.054 		-27.765 		0.248
v -22.25 		-20.249 		0
v -23.824 		-27.194 		0
v -26 		-29 		0
v -22.445 		-20.145 		0.248
v -25.752 		-22.75 		0
v -22.445 		-20.145 		0
v -22.689 		-25.299 		0.248
v -22.558 		-23.212 		0.248
v -23.855 		-27.14 		0
v -22.558 		-23.212 		0
v -22.75 		-20.249 		0
v -22.75 		-23.25 		0.248
v -22.627 		-25.304 		0.248
v -19.747 		-17.248 		2.495
v -19.747 		-17.248 		0.248
v -22.396 		-20.102 		0.248
v -22.566 		-25.311 		0.248
v -22.5 		-23.183 		0.248
v -23.114 		-27.749 		0
v -22.5 		-23.183 		0
v -23.114 		-27.749 		0.248
v -22.396 		-20.102 		0
v -21.499 		-23.25 		0
v -22.25 		-22.75 		0
v -22.506 		-25.322 		0.248
v -22.445 		-23.147 		0.248
v -22.446 		-25.335 		0.248
v -22.445 		-23.147 		0
v -22.353 		-20.053 		0.248
v -22.353 		-20.053 		0
v -22.386 		-25.351 		0.248
v -25.752 		-21.249 		0
v -23.882 		-27.086 		0
v -23.172 		-27.729 		0
v -19.622 		-17.123 		2.998
v -22.396 		-23.104 		0.248
v -23.172 		-27.729 		0.248
v -22.396 		-23.104 		0
v -23.907 		-27.029 		0
v -22.328 		-25.371 		0.248
v -23.929 		-26.972 		0
v -22.353 		-23.054 		0.248
v -22.353 		-23.054 		0
v -22.271 		-25.393 		0.248
v -22.214 		-25.418 		0.248
v -22.317 		-19.999 		0.248
v -22.75 		-23.25 		0
v -22.317 		-19.999 		0
v -23.949 		-26.914 		0
v -23.965 		-26.854 		0
v -23.978 		-26.794 		0
v -23.172 		-25.371 		0.248
v -23.989 		-26.734 		0
v -22.16 		-25.445 		0
v -23.114 		-25.351 		0.248
v -22.16 		-25.445 		0.248
v -23.147 		-23.054 		0.248
v -23.996 		-26.673 		0
v -23.147 		-23.054 		0
v -23.054 		-25.335 		0.248
v -22.106 		-25.476 		0
v -22.106 		-25.476 		0.248
v -24.001 		-26.611 		0
v -22.054 		-25.509 		0
v -22.054 		-25.509 		0.248
v -19.622 		-17.123 		2.495
v -22.004 		-25.544 		0
v -22.004 		-25.544 		0.248
v -24.002 		-26.55 		0
v -22.994 		-25.322 		0.248
v -19.747 		-23.25 		0.248
v -21.955 		-25.582 		0
v -21.955 		-25.582 		0.248
v -24.001 		-26.489 		0
v -22.934 		-25.311 		0.248
v -21.909 		-25.622 		0
v -21.909 		-25.622 		0.248
v -23.996 		-26.427 		0
v -23.989 		-26.366 		0
v -23.104 		-23.104 		0.248
v -21.864 		-25.664 		0
v -23.104 		-23.104 		0
v -21.864 		-25.664 		0.248
v -19.622 		-22.748 		2.646
v -19.622 		-22.748 		2.85
v -21.822 		-25.709 		0
v -21.822 		-25.709 		0.248
v -23.978 		-26.306 		0
v -23.183 		-19.999 		0
v -21.782 		-25.755 		0
v -21.782 		-25.755 		0.248
v -23.055 		-23.147 		0.248
v -23.055 		-23.147 		0
v -23.147 		-20.053 		0
v -23.965 		-26.246 		0
v -21.744 		-25.804 		0
v -21.744 		-25.804 		0.248
v -23.104 		-20.102 		0
v -21.709 		-25.854 		0
v -23.949 		-26.186 		0
v -21.709 		-25.854 		0.248
v -22.873 		-25.304 		0.248
v -21.645 		-27.14 		0
v -22.811 		-25.299 		0.248
v -23.929 		-26.128 		0
v -21.676 		-25.906 		0
v -23.055 		-20.145 		0
v -21.676 		-25.906 		0.248
v -21.676 		-27.194 		0
v -22.75 		-25.298 		0.248
v -21.645 		-25.96 		0
v -23 		-23.183 		0.248
v -23 		-23.183 		0
v -23 		-20.182 		0
v -21.618 		-26.014 		0
v -22.942 		-20.211 		0
v -21.709 		-27.246 		0
v -23.229 		-27.707 		0.248
v -22.88 		-20.232 		0
v -21.593 		-26.071 		0
v -22.942 		-23.212 		0.248
v -22.942 		-23.212 		0
v -21.744 		-27.296 		0
v -23.907 		-26.071 		0
v -23.882 		-26.014 		0
v -21.782 		-27.345 		0
v -22.88 		-23.233 		0.248
v -22.815 		-20.245 		0
v -22.88 		-23.233 		0
v -23.855 		-25.96 		0
v -23.286 		-27.682 		0.248
v -21.822 		-27.391 		0
v -23.183 		-19.999 		0.248
v -22.815 		-23.246 		0.248
v -22.815 		-23.246 		0
v -21.864 		-27.436 		0
v -23.34 		-27.655 		0.248
v -21.909 		-27.478 		0
v -19.622 		-23.253 		2.85
v -19.622 		-23.253 		2.646
v -23.394 		-27.624 		0.248
v -21.955 		-27.518 		0
v -23.147 		-20.053 		0.248
v -23.446 		-27.591 		0.248
v -23.824 		-25.906 		0
v -23.496 		-27.556 		0.248
v -23.791 		-25.854 		0
v -23.545 		-27.518 		0.248
v -23.756 		-25.804 		0
v -23.104 		-20.102 		0.248
v -23.591 		-27.478 		0.248
v -22.317 		-23 		0.248
v -23.718 		-25.755 		0
v -24.752 		-28.753 		0.248
v -22.317 		-23 		0
v -25.752 		-28.753 		0.248
v -23.678 		-25.709 		0
v -23.636 		-27.436 		0.248
v -25.752 		-28.753 		2.495
v -23.636 		-25.664 		0
v -23.678 		-27.391 		0.248
v -23.591 		-25.622 		0
v -22.288 		-22.941 		0.248
v -22.689 		-25.299 		0
v -22.288 		-22.941 		0
v -23.718 		-27.345 		0.248
v -22.627 		-25.304 		0
v -23.756 		-27.296 		0.248
v -23.545 		-25.582 		0
v -22.566 		-25.311 		0
v -22.004 		-27.556 		0
v -23.496 		-25.544 		0
v -23.791 		-27.246 		0.248
v -22.267 		-22.879 		0.248
v -22.267 		-22.879 		0
v -22.288 		-19.94 		0
v -23.824 		-27.194 		0.248
v -22.506 		-25.322 		0
v -22.267 		-19.878 		0
v -23.855 		-27.14 		0.248
v -23.446 		-25.509 		0
v -22.254 		-22.815 		0.248
v -22.446 		-25.335 		0
v -22.254 		-22.815 		0
v -22.254 		-19.814 		0
v -23.394 		-25.476 		0
v -23.34 		-25.445 		0
v -25.877 		-28.878 		2.998
v -22.386 		-25.351 		0
v -22.25 		-19.749 		0
v -23.286 		-25.418 		0
v -22.328 		-25.371 		0
v -22.254 		-19.683 		0
v -22.054 		-27.591 		0
v -23.229 		-25.393 		0
v -23.882 		-27.086 		0.248
v -22.271 		-25.393 		0
v -22.267 		-19.619 		0
v -22.106 		-27.624 		0
v -22.254 		-22.685 		0.248
v -22.254 		-22.685 		0
v -22.288 		-19.557 		0
v -22.214 		-25.418 		0
v -22.16 		-27.655 		0
v -23.907 		-27.029 		0.248
v -22.267 		-22.62 		0.248
v -22.267 		-22.62 		0
v -22.317 		-19.498 		0
v -23.929 		-26.972 		0.248
v -22.353 		-19.444 		0
v -23.055 		-20.145 		0.248
v -25.877 		-28.878 		2.495
v -21.499 		-26.611 		0
v -23.949 		-26.914 		0.248
v -22.396 		-19.395 		0
v -23 		-20.182 		0.248
v -22.288 		-22.558 		0.248
v -22.288 		-22.558 		0
v -23.965 		-26.854 		0.248
v -21.504 		-26.673 		0
v -19.747 		-28.753 		2.495
v -19.747 		-28.753 		0.248
v -23.978 		-26.794 		0.248
v -22.445 		-19.352 		0
v -21.511 		-26.734 		0
v -23.989 		-26.734 		0.248
v -22.5 		-19.315 		0
v -22.942 		-20.211 		0.248
v -21.522 		-26.794 		0
v -23.996 		-26.673 		0.248
v -22.558 		-19.286 		0
v -24.001 		-26.611 		0.248
v -21.535 		-26.854 		0
v -22.62 		-19.265 		0
v -24.002 		-26.55 		0.248
v -22.685 		-19.253 		0
v -24.001 		-26.489 		0.248
v -22.75 		-19.248 		0
v -22.815 		-19.253 		0
v -23.996 		-26.427 		0.248
v -22.317 		-22.5 		0.248
v -22.317 		-22.5 		0
v -23.989 		-26.366 		0.248
v -22.88 		-19.265 		0
v -21.645 		-27.14 		0.248
v -23.978 		-26.306 		0.248
v -22.942 		-19.286 		0
v -21.676 		-27.194 		0.248
v -22.353 		-22.445 		0.248
v -22.353 		-22.445 		0
v -23.965 		-26.246 		0.248
v -23 		-19.315 		0
v -21.709 		-27.246 		0.248
v -23.949 		-26.186 		0.248
v -21.744 		-27.296 		0.248
v -23.055 		-19.352 		0
v -22.396 		-22.396 		0.248
v -22.396 		-22.396 		0
v -21.782 		-27.345 		0.248
v -23.104 		-19.395 		0
v -21.822 		-27.391 		0.248
v -23.147 		-19.444 		0
v -22.445 		-22.353 		0.248
v -22.445 		-22.353 		0
v -23.183 		-19.498 		0
v -21.864 		-27.436 		0.248
v -23.212 		-19.557 		0
v -21.909 		-27.478 		0.248
v -23.212 		-19.94 		0
v -22.5 		-22.317 		0.248
v -22.5 		-22.317 		0
v -21.955 		-27.518 		0.248
v -22.004 		-27.556 		0.248
v -23.233 		-19.619 		0
v -21.497 		-26.55 		0
v -22.054 		-27.591 		0.248
v -22.558 		-22.288 		0.248
v -22.558 		-22.288 		0
v -22.106 		-27.624 		0.248
v -23.246 		-19.683 		0
v -22.62 		-22.267 		0.248
v -22.62 		-22.267 		0
v -23.25 		-19.749 		0
v -22.16 		-27.655 		0.248
v -23.172 		-25.371 		0
v -21.551 		-26.914 		0
v -23.246 		-19.814 		0
v -23.233 		-19.878 		0
v -21.571 		-26.972 		0
v -22.685 		-22.254 		0.248
v -22.685 		-22.254 		0
v -23.114 		-25.351 		0
v -23.054 		-25.335 		0
v -21.499 		-26.611 		0.248
v -21.593 		-27.029 		0
v -21.504 		-26.673 		0.248
v -23.929 		-26.128 		0.248
v -22.994 		-25.322 		0
v -21.618 		-27.086 		0
v -22.88 		-20.232 		0.248
v -21.511 		-26.734 		0.248
v -22.934 		-25.311 		0
v -21.522 		-26.794 		0.248
v -22.815 		-22.254 		0.248
v -22.815 		-22.254 		0
v -22.873 		-25.304 		0
v -21.535 		-26.854 		0.248
v -22.88 		-22.267 		0.248
v -22.88 		-22.267 		0
v -22.811 		-25.299 		0
v -21.551 		-26.914 		0.248
v -21.571 		-26.128 		0
v -21.551 		-26.186 		0
v -21.571 		-26.972 		0.248
v -23.907 		-26.071 		0.248
v -21.535 		-26.246 		0
v -21.593 		-27.029 		0.248
v -22.942 		-22.288 		0.248
v -22.942 		-22.288 		0
v -21.618 		-27.086 		0.248
v -21.522 		-26.306 		0
v -23.882 		-26.014 		0.248
v -21.511 		-26.366 		0
v -23 		-22.317 		0.248
v -23 		-22.317 		0
v -23.855 		-25.96 		0.248
v -23.824 		-25.906 		0.248
v -23.791 		-25.854 		0.248
v -23.055 		-22.353 		0.248
v -23.756 		-25.804 		0.248
v -23.718 		-25.755 		0.248
v -23.104 		-22.396 		0.248
v -23.678 		-25.709 		0.248
v -23.636 		-25.664 		0.248
v -23.591 		-25.622 		0.248
v -23.147 		-22.445 		0.248
v -23.545 		-25.582 		0.248
v -23.183 		-22.5 		0.248
v -23.496 		-25.544 		0.248
v -23.446 		-25.509 		0.248
v -23.212 		-22.558 		0.248
v -23.394 		-25.476 		0.248
v -23.34 		-25.445 		0.248
v -23.286 		-25.418 		0.248
v -23.212 		-22.941 		0.248
v -23.183 		-23 		0.248
v -23.229 		-25.393 		0.248
v -21.504 		-26.427 		0
v -23.233 		-22.62 		0.248
v -21.499 		-26.489 		0
v -21.497 		-26.55 		0.248
v -21.571 		-26.128 		0.248
v -23.246 		-22.685 		0.248
v -22.214 		-27.682 		0
v -21.551 		-26.186 		0.248
v -21.535 		-26.246 		0.248
v -21.522 		-26.306 		0.248
v -21.511 		-26.366 		0.248
v -23.246 		-22.815 		0.248
v -21.504 		-26.427 		0.248
v -21.499 		-26.489 		0.248
v -23.233 		-22.879 		0.248
v -22.214 		-27.682 		0.248
v -22.815 		-20.245 		0.248
v -22.288 		-19.94 		0.248
v -25.752 		-22.75 		0.248
v -25.752 		-21.249 		0.248
v -25.752 		-17.248 		0.248
v -25.752 		-17.248 		2.495
v -19.622 		-28.878 		2.998
v -19.622 		-28.878 		2.495
v -22.267 		-19.878 		0.248
v -22.254 		-19.814 		0.248
v -25.877 		-17.123 		2.998
v -25.877 		-17.123 		2.495
v -22.254 		-19.683 		0.248
v -22.267 		-19.619 		0.248
v -22.288 		-19.557 		0.248
v -22.317 		-19.498 		0.248
v -22.353 		-19.444 		0.248
v -22.396 		-19.395 		0.248
v -22.445 		-19.352 		0.248
v -22.5 		-19.315 		0.248
v -22.558 		-19.286 		0.248
v -22.62 		-19.265 		0.248
v -22.685 		-19.253 		0.248
v -22.815 		-19.253 		0.248
v -22.88 		-19.265 		0.248
v -22.942 		-19.286 		0.248
v -23 		-19.315 		0.248
v -23.055 		-19.352 		0.248
v -23.104 		-19.395 		0.248
v -23.147 		-19.444 		0.248
v -23.183 		-19.498 		0.248
v -23.212 		-19.557 		0.248
v -23.212 		-19.94 		0.248
v -23.233 		-19.619 		0.248
v -23.246 		-19.683 		0.248
v -23.25 		-19.749 		0.248
v -23.246 		-19.814 		0.248
v -23.233 		-19.878 		0.248
# 501 vertices

g group_0_15277357

usemtl color_15277357
s 0

f 5 	7 	8
f 5 	8 	9
f 11 	57 	58
f 4 	11 	58
f 15 	18 	19
f 15 	19 	20
f 20 	19 	9
f 20 	9 	8
f 12 	16 	21
f 12 	21 	22
f 7 	5 	18
f 7 	18 	15
f 23 	24 	16
f 23 	16 	12
f 26 	28 	24
f 26 	24 	23
f 35 	29 	34
f 27 	171 	25
f 30 	453 	37
f 29 	35 	32
f 38 	39 	28
f 38 	28 	26
f 34 	29 	60
f 42 	45 	39
f 42 	39 	38
f 36 	103 	41
f 491 	490 	40
f 40 	487 	47
f 47 	486 	40
f 48 	49 	45
f 48 	45 	42
f 44 	60 	43
f 32 	35 	61
f 43 	61 	35
f 60 	44 	34
f 37 	56 	54
f 51 	53 	49
f 51 	49 	48
f 54 	58 	57
f 56 	58 	54
f 61 	43 	60
f 135 	474 	166
f 441 	438 	56
f 59 	464 	52
f 390 	381 	66
f 66 	59 	52
f 408 	404 	464
f 418 	408 	400
f 400 	328 	418
f 36 	33 	103
f 475 	114 	166
f 63 	64 	51
f 53 	51 	64
f 62 	54 	57
f 111 	66 	68
f 69 	70 	64
f 69 	64 	63
f 67 	54 	62
f 50 	46 	103
f 46 	41 	103
f 68 	66 	76
f 68 	76 	77
f 74 	75 	70
f 74 	70 	69
f 19 	18 	91
f 477 	115 	478
f 476 	115 	477
f 78 	115 	476
f 473 	115 	78
f 65 	103 	71
f 79 	13 	54
f 14 	159 	54
f 222 	392 	213
f 77 	76 	88
f 77 	88 	89
f 82 	83 	75
f 82 	75 	74
f 86 	103 	19
f 91 	86 	19
f 300 	171 	306
f 171 	90 	282
f 3 	4 	58
f 54 	67 	72
f 54 	72 	79
f 92 	93 	83
f 92 	83 	82
f 98 	91 	18
f 98 	18 	5
f 87 	84 	94
f 87 	94 	95
f 89 	88 	96
f 89 	96 	97
f 52 	390 	66
f 27 	31 	171
f 5 	9 	98
f 9 	103 	98
f 9 	19 	103
f 97 	96 	104
f 97 	104 	106
f 95 	94 	108
f 95 	108 	110
f 81 	80 	103
f 113 	84 	107
f 99 	100 	93
f 99 	93 	92
f 142 	136 	171
f 108 	131 	118
f 444 	447 	192
f 94 	127 	108
f 405 	228 	55
f 419 	425 	214
f 58 	214 	425
f 2 	58 	1
f 3 	58 	2
f 419 	219 	409
f 391 	55 	68
f 89 	97 	391
f 101 	391 	97
f 97 	106 	101
f 40 	115 	114
f 110 	108 	118
f 110 	118 	120
f 117 	84 	113
f 106 	104 	116
f 106 	116 	122
f 125 	94 	117
f 381 	377 	76
f 119 	121 	100
f 119 	100 	99
f 127 	94 	125
f 120 	118 	126
f 120 	126 	128
f 40 	486 	115
f 116 	129 	130
f 116 	130 	122
f 102 	103 	109
f 58 	132 	86
f 86 	383 	58
f 128 	126 	136
f 128 	136 	138
f 134 	137 	121
f 134 	121 	119
f 105 	86 	132
f 131 	140 	118
f 123 	124 	301
f 301 	307 	123
f 136 	142 	143
f 136 	143 	138
f 76 	66 	381
f 171 	136 	144
f 140 	144 	118
f 109 	103 	133
f 126 	118 	144
f 129 	146 	148
f 129 	148 	130
f 77 	89 	391
f 68 	77 	391
f 133 	103 	139
f 255 	143 	142
f 104 	96 	363
f 370 	363 	96
f 13 	14 	54
f 229 	393 	222
f 87 	264 	147
f 172 	167 	123
f 141 	139 	103
f 145 	171 	144
f 10 	137 	134
f 149 	141 	103
f 150 	149 	103
f 282 	274 	171
f 274 	263 	171
f 151 	150 	103
f 122 	101 	106
f 14 	157 	159
f 153 	151 	103
f 156 	154 	161
f 156 	161 	162
f 276 	279 	101
f 470 	60 	135
f 162 	161 	164
f 162 	164 	165
f 158 	153 	103
f 165 	164 	167
f 165 	167 	168
f 470 	135 	185
f 166 	184 	135
f 115 	317 	171
f 168 	167 	172
f 168 	172 	173
f 114 	115 	171
f 130 	101 	122
f 29 	135 	60
f 101 	279 	32
f 173 	172 	176
f 173 	176 	177
f 169 	103 	174
f 159 	157 	180
f 159 	180 	182
f 177 	176 	181
f 177 	181 	183
f 196 	123 	199
f 101 	148 	276
f 130 	148 	101
f 183 	181 	186
f 183 	186 	187
f 185 	135 	184
f 471 	240 	166
f 190 	191 	187
f 190 	187 	186
f 182 	180 	192
f 182 	192 	193
f 234 	227 	175
f 170 	175 	227
f 105 	178 	103
f 196 	197 	191
f 196 	191 	190
f 86 	105 	103
f 199 	201 	197
f 199 	197 	196
f 179 	105 	188
f 195 	188 	105
f 204 	234 	202
f 206 	208 	201
f 206 	201 	199
f 210 	112 	204
f 34 	185 	184
f 34 	184 	35
f 193 	192 	212
f 193 	212 	213
f 211 	25 	208
f 211 	208 	206
f 214 	58 	207
f 210 	107 	112
f 215 	27 	25
f 215 	25 	211
f 200 	105 	205
f 219 	419 	216
f 240 	35 	184
f 213 	212 	221
f 213 	221 	222
f 224 	205 	105
f 203 	61 	209
f 180 	157 	440
f 222 	221 	227
f 222 	227 	229
f 116 	104 	363
f 223 	217 	61
f 217 	209 	61
f 228 	409 	219
f 111 	55 	228
f 229 	227 	234
f 229 	234 	235
f 226 	223 	61
f 237 	254 	231
f 471 	166 	321
f 241 	254 	237
f 235 	234 	112
f 235 	112 	147
f 184 	166 	240
f 189 	233 	243
f 189 	243 	194
f 244 	254 	241
f 443 	444 	192
f 470 	185 	239
f 246 	254 	244
f 225 	224 	105
f 84 	87 	112
f 147 	112 	87
f 239 	44 	43
f 239 	43 	240
f 230 	225 	105
f 35 	240 	43
f 248 	254 	246
f 194 	243 	250
f 194 	250 	198
f 245 	230 	105
f 185 	34 	44
f 185 	44 	239
f 220 	31 	27
f 220 	27 	215
f 251 	254 	248
f 247 	245 	105
f 142 	252 	255
f 254 	37 	256
f 249 	247 	105
f 258 	254 	251
f 142 	171 	252
f 259 	321 	254
f 259 	254 	256
f 253 	249 	105
f 261 	254 	258
f 257 	105 	260
f 107 	6 	264
f 252 	263 	265
f 252 	265 	255
f 236 	232 	61
f 266 	254 	261
f 107 	264 	267
f 107 	267 	113
f 105 	54 	260
f 268 	254 	266
f 262 	260 	54
f 58 	189 	194
f 198 	58 	194
f 207 	58 	198
f 216 	419 	214
f 270 	117 	113
f 270 	113 	267
f 263 	274 	275
f 263 	275 	265
f 277 	254 	273
f 263 	252 	171
f 321 	259 	471
f 269 	262 	54
f 278 	125 	117
f 278 	117 	270
f 274 	282 	284
f 274 	284 	275
f 280 	254 	277
f 283 	127 	125
f 283 	125 	278
f 285 	32 	279
f 289 	131 	127
f 289 	127 	283
f 272 	269 	54
f 290 	32 	285
f 124 	284 	282
f 124 	282 	90
f 281 	272 	54
f 292 	140 	131
f 292 	131 	289
f 238 	236 	61
f 286 	281 	54
f 296 	254 	280
f 297 	144 	140
f 297 	140 	292
f 242 	238 	61
f 90 	300 	301
f 90 	301 	124
f 303 	145 	144
f 303 	144 	297
f 305 	254 	296
f 300 	306 	307
f 300 	307 	301
f 98 	288 	474
f 298 	302 	32
f 198 	250 	311
f 198 	311 	207
f 288 	471 	312
f 23 	12 	61
f 299 	61 	304
f 309 	254 	305
f 308 	32 	302
f 471 	259 	312
f 90 	171 	300
f 314 	254 	309
f 207 	311 	316
f 207 	316 	214
f 312 	8 	288
f 288 	7 	474
f 306 	317 	318
f 306 	318 	307
f 319 	254 	314
f 321 	322 	254
f 306 	171 	317
f 323 	254 	319
f 243 	56 	250
f 324 	32 	315
f 98 	60 	288
f 326 	254 	323
f 317 	342 	318
f 327 	32 	324
f 214 	316 	328
f 214 	328 	216
f 288 	470 	471
f 331 	334 	32
f 145 	303 	156
f 154 	156 	303
f 335 	337 	254
f 330 	254 	326
f 311 	250 	56
f 286 	54 	287
f 332 	335 	254
f 334 	336 	32
f 336 	338 	32
f 310 	315 	32
f 317 	341 	342
f 348 	322 	345
f 341 	349 	350
f 341 	350 	342
f 353 	322 	348
f 317 	115 	341
f 355 	322 	353
f 356 	86 	352
f 352 	86 	347
f 349 	357 	358
f 349 	358 	350
f 257 	253 	105
f 200 	195 	105
f 105 	179 	178
f 174 	103 	178
f 158 	103 	163
f 163 	103 	169
f 359 	322 	355
f 361 	322 	359
f 357 	363 	364
f 357 	364 	358
f 366 	322 	361
f 367 	86 	365
f 368 	322 	366
f 349 	341 	115
f 110 	120 	289
f 289 	283 	110
f 270 	95 	278
f 267 	87 	270
f 264 	87 	267
f 410 	147 	6
f 291 	54 	295
f 287 	54 	291
f 95 	270 	87
f 363 	370 	371
f 363 	371 	364
f 372 	322 	368
f 373 	322 	372
f 115 	465 	349
f 294 	271 	61
f 271 	242 	61
f 386 	61 	389
f 386 	333 	61
f 320 	61 	325
f 329 	325 	61
f 61 	320 	313
f 61 	313 	375
f 375 	450 	61
f 370 	377 	378
f 370 	378 	371
f 376 	322 	373
f 146 	129 	349
f 465 	146 	349
f 379 	322 	376
f 374 	86 	367
f 380 	86 	374
f 377 	381 	382
f 377 	382 	378
f 383 	86 	380
f 362 	365 	86
f 152 	295 	385
f 102 	85 	103
f 85 	81 	103
f 80 	73 	103
f 73 	71 	103
f 65 	50 	103
f 92 	103 	99
f 74 	103 	82
f 92 	82 	103
f 103 	74 	69
f 103 	69 	63
f 103 	63 	61
f 299 	294 	61
f 51 	61 	63
f 357 	349 	116
f 381 	390 	391
f 381 	391 	382
f 329 	61 	333
f 152 	385 	392
f 152 	392 	155
f 363 	357 	116
f 384 	322 	379
f 387 	58 	383
f 369 	58 	388
f 387 	388 	58
f 189 	58 	369
f 55 	391 	52
f 390 	52 	391
f 155 	392 	393
f 155 	393 	160
f 389 	61 	395
f 160 	393 	398
f 160 	398 	170
f 96 	88 	377
f 377 	370 	96
f 170 	398 	402
f 170 	402 	175
f 52 	404 	405
f 52 	405 	55
f 232 	226 	61
f 203 	399 	61
f 399 	395 	61
f 175 	402 	406
f 175 	406 	202
f 351 	354 	37
f 401 	322 	396
f 86 	32 	338
f 86 	338 	339
f 86 	339 	344
f 347 	86 	344
f 360 	86 	356
f 362 	86 	360
f 404 	408 	409
f 404 	409 	405
f 202 	406 	410
f 202 	410 	204
f 397 	37 	354
f 220 	123 	412
f 204 	410 	6
f 204 	6 	210
f 415 	37 	397
f 417 	420 	322
f 407 	322 	403
f 412 	123 	413
f 408 	418 	419
f 408 	419 	409
f 32 	290 	293
f 298 	32 	293
f 310 	32 	308
f 327 	331 	32
f 6 	107 	210
f 345 	322 	420
f 411 	322 	407
f 418 	424 	425
f 418 	425 	419
f 422 	37 	415
f 424 	429 	1
f 424 	1 	425
f 464 	400 	408
f 404 	52 	464
f 429 	432 	2
f 429 	2 	1
f 427 	37 	426
f 430 	37 	428
f 435 	37 	434
f 433 	37 	431
f 2 	432 	436
f 2 	436 	3
f 432 	429 	56
f 424 	56 	429
f 437 	37 	435
f 433 	434 	37
f 3 	436 	438
f 3 	438 	4
f 439 	37 	437
f 436 	432 	56
f 440 	37 	439
f 4 	438 	441
f 4 	441 	11
f 212 	192 	447
f 447 	152 	212
f 438 	436 	56
f 152 	155 	212
f 13 	445 	446
f 13 	446 	14
f 221 	212 	155
f 155 	160 	221
f 227 	221 	160
f 160 	170 	227
f 202 	234 	175
f 157 	14 	446
f 446 	445 	37
f 416 	413 	32
f 110 	283 	95
f 10 	218 	137
f 88 	76 	377
f 32 	61 	416
f 17 	231 	218
f 17 	218 	10
f 414 	417 	322
f 268 	273 	254
f 37 	254 	337
f 340 	37 	337
f 343 	37 	340
f 346 	351 	37
f 343 	346 	37
f 422 	426 	37
f 427 	428 	37
f 431 	37 	430
f 330 	332 	254
f 11 	441 	449
f 11 	449 	57
f 33 	237 	231
f 33 	231 	17
f 448 	423 	61
f 450 	448 	61
f 36 	241 	237
f 36 	237 	33
f 216 	328 	400
f 216 	400 	219
f 57 	449 	453
f 57 	453 	62
f 41 	244 	241
f 41 	241 	36
f 455 	171 	452
f 234 	204 	112
f 131 	108 	127
f 173 	171 	168
f 183 	171 	177
f 191 	171 	187
f 112 	107 	84
f 84 	117 	94
f 441 	56 	449
f 46 	246 	244
f 46 	244 	41
f 456 	171 	455
f 62 	453 	30
f 62 	30 	67
f 304 	61 	454
f 31 	452 	171
f 453 	449 	37
f 56 	37 	449
f 50 	248 	246
f 50 	246 	46
f 255 	123 	143
f 167 	164 	123
f 22 	454 	61
f 67 	30 	459
f 67 	459 	72
f 65 	251 	248
f 65 	248 	50
f 12 	22 	61
f 460 	171 	458
f 171 	456 	457
f 30 	37 	459
f 138 	143 	123
f 164 	161 	123
f 71 	258 	251
f 71 	251 	65
f 461 	171 	460
f 458 	171 	457
f 72 	459 	462
f 72 	462 	79
f 73 	261 	258
f 73 	258 	71
f 451 	322 	461
f 38 	26 	61
f 26 	23 	61
f 80 	266 	261
f 80 	261 	73
f 193 	295 	182
f 42 	61 	48
f 42 	38 	61
f 79 	462 	445
f 79 	445 	13
f 81 	268 	266
f 81 	266 	80
f 21 	322 	463
f 48 	61 	51
f 54 	159 	295
f 91 	29 	86
f 85 	273 	268
f 85 	268 	81
f 192 	180 	443
f 442 	443 	180
f 440 	442 	180
f 37 	440 	157
f 157 	446 	37
f 462 	37 	445
f 459 	37 	462
f 213 	295 	193
f 182 	295 	159
f 102 	277 	273
f 102 	273 	85
f 28 	322 	24
f 384 	463 	322
f 109 	280 	277
f 109 	277 	102
f 56 	424 	316
f 21 	16 	322
f 133 	280 	109
f 16 	24 	322
f 219 	400 	464
f 219 	464 	228
f 32 	86 	29
f 235 	402 	229
f 147 	410 	235
f 49 	53 	322
f 133 	296 	280
f 99 	103 	119
f 139 	305 	296
f 139 	296 	133
f 228 	464 	59
f 228 	59 	111
f 394 	322 	451
f 394 	396 	322
f 401 	403 	322
f 411 	414 	322
f 171 	461 	322
f 39 	322 	28
f 254 	322 	53
f 141 	309 	305
f 141 	305 	139
f 328 	316 	418
f 424 	418 	316
f 275 	123 	265
f 66 	111 	59
f 149 	314 	309
f 149 	309 	141
f 284 	123 	275
f 33 	17 	103
f 17 	10 	103
f 103 	10 	134
f 134 	119 	103
f 150 	319 	314
f 150 	314 	149
f 39 	45 	322
f 45 	49 	322
f 254 	53 	64
f 254 	64 	70
f 254 	70 	75
f 254 	75 	83
f 83 	93 	254
f 93 	100 	254
f 151 	323 	319
f 151 	319 	150
f 153 	326 	323
f 153 	323 	151
f 316 	311 	56
f 496 	56 	233
f 158 	330 	326
f 158 	326 	153
f 255 	265 	123
f 124 	123 	284
f 103 	61 	98
f 345 	203 	209
f 345 	209 	348
f 60 	98 	61
f 276 	148 	465
f 146 	465 	148
f 303 	297 	128
f 348 	209 	217
f 348 	217 	353
f 163 	332 	330
f 163 	330 	158
f 353 	217 	223
f 353 	223 	355
f 163 	335 	332
f 137 	218 	254
f 100 	121 	254
f 154 	303 	128
f 355 	223 	226
f 355 	226 	359
f 342 	32 	318
f 318 	32 	307
f 169 	335 	163
f 218 	231 	254
f 121 	137 	254
f 138 	123 	154
f 128 	138 	154
f 466 	37 	54
f 466 	54 	105
f 359 	226 	232
f 359 	232 	361
f 174 	337 	335
f 174 	335 	169
f 56 	467 	132
f 56 	132 	58
f 161 	154 	123
f 350 	32 	342
f 178 	340 	337
f 178 	337 	174
f 361 	232 	236
f 361 	236 	366
f 56 	40 	468
f 176 	172 	123
f 358 	101 	350
f 179 	343 	340
f 179 	340 	178
f 238 	368 	366
f 238 	366 	236
f 32 	413 	123
f 181 	176 	123
f 165 	171 	162
f 156 	171 	145
f 364 	101 	358
f 188 	346 	343
f 188 	343 	179
f 181 	123 	186
f 256 	37 	466
f 242 	372 	368
f 242 	368 	238
f 371 	101 	364
f 186 	123 	190
f 56 	468 	467
f 195 	351 	346
f 195 	346 	188
f 378 	101 	371
f 271 	373 	372
f 271 	372 	242
f 199 	123 	206
f 190 	123 	196
f 200 	354 	351
f 200 	351 	195
f 468 	40 	469
f 114 	469 	40
f 382 	101 	378
f 211 	123 	215
f 206 	123 	211
f 294 	376 	373
f 294 	373 	271
f 205 	397 	354
f 205 	354 	200
f 91 	474 	29
f 391 	101 	382
f 123 	307 	32
f 299 	379 	376
f 299 	376 	294
f 111 	68 	55
f 32 	350 	101
f 136 	126 	144
f 421 	416 	61
f 423 	421 	61
f 215 	123 	220
f 6 	147 	264
f 304 	384 	379
f 304 	379 	299
f 397 	205 	415
f 224 	415 	205
f 304 	463 	384
f 225 	422 	415
f 225 	415 	224
f 197 	171 	191
f 156 	162 	171
f 451 	375 	313
f 451 	313 	394
f 230 	426 	422
f 230 	422 	225
f 201 	171 	197
f 168 	171 	165
f 278 	95 	283
f 394 	313 	320
f 394 	320 	396
f 245 	427 	426
f 245 	426 	230
f 208 	171 	201
f 177 	171 	173
f 325 	401 	396
f 325 	396 	320
f 25 	171 	208
f 187 	171 	183
f 247 	428 	427
f 247 	427 	245
f 329 	403 	401
f 329 	401 	325
f 292 	289 	120
f 249 	430 	428
f 249 	428 	247
f 333 	407 	403
f 333 	403 	329
f 120 	128 	297
f 297 	292 	120
f 253 	431 	430
f 253 	430 	249
f 386 	411 	407
f 386 	407 	333
f 295 	213 	385
f 257 	433 	431
f 257 	431 	253
f 389 	414 	411
f 389 	411 	386
f 260 	434 	433
f 260 	433 	257
f 392 	222 	393
f 385 	213 	392
f 393 	229 	398
f 395 	417 	414
f 395 	414 	389
f 434 	260 	262
f 434 	262 	435
f 402 	235 	406
f 398 	229 	402
f 406 	235 	410
f 399 	420 	417
f 399 	417 	395
f 435 	262 	437
f 420 	399 	345
f 203 	345 	399
f 437 	262 	269
f 437 	269 	272
f 437 	272 	439
f 439 	272 	281
f 439 	281 	440
f 412 	452 	220
f 31 	220 	452
f 440 	281 	286
f 440 	286 	442
f 442 	286 	287
f 442 	287 	443
f 452 	412 	413
f 452 	413 	455
f 443 	287 	291
f 443 	291 	444
f 455 	413 	416
f 455 	416 	456
f 444 	291 	295
f 444 	295 	447
f 456 	416 	421
f 456 	421 	457
f 447 	295 	152
f 457 	421 	423
f 457 	423 	458
f 114 	171 	321
f 322 	321 	171
f 458 	423 	448
f 458 	448 	460
f 470 	288 	60
f 460 	448 	450
f 460 	450 	461
f 461 	450 	375
f 461 	375 	451
f 114 	321 	166
f 454 	463 	304
f 470 	239 	240
f 240 	471 	470
f 22 	21 	463
f 22 	463 	454
f 114 	475 	469
f 276 	465 	472
f 276 	472 	279
f 132 	467 	466
f 132 	466 	105
f 409 	228 	405
f 472 	465 	115
f 129 	116 	349
f 259 	466 	469
f 279 	472 	473
f 279 	473 	285
f 256 	466 	259
f 467 	469 	466
f 468 	469 	467
f 1 	58 	425
f 135 	29 	474
f 98 	474 	91
f 285 	473 	78
f 285 	78 	290
f 475 	166 	474
f 472 	115 	473
f 475 	312 	259
f 475 	259 	469
f 290 	78 	476
f 290 	476 	293
f 475 	474 	20
f 15 	20 	474
f 8 	312 	20
f 7 	288 	8
f 312 	475 	20
f 474 	7 	15
f 293 	476 	477
f 293 	477 	298
f 298 	477 	478
f 298 	478 	302
f 302 	478 	479
f 302 	479 	308
f 308 	479 	480
f 308 	480 	310
f 478 	115 	479
f 481 	315 	480
f 310 	480 	315
f 480 	479 	115
f 481 	482 	324
f 481 	324 	315
f 482 	483 	327
f 482 	327 	324
f 481 	480 	115
f 483 	484 	331
f 483 	331 	327
f 482 	481 	115
f 484 	485 	334
f 484 	334 	331
f 484 	483 	115
f 485 	486 	336
f 485 	336 	334
f 484 	115 	485
f 483 	482 	115
f 47 	336 	486
f 485 	115 	486
f 47 	487 	339
f 47 	339 	338
f 487 	488 	344
f 487 	344 	339
f 487 	40 	488
f 488 	489 	347
f 488 	347 	344
f 40 	489 	488
f 489 	490 	352
f 489 	352 	347
f 490 	491 	356
f 490 	356 	352
f 489 	40 	490
f 491 	492 	360
f 491 	360 	356
f 360 	492 	493
f 360 	493 	362
f 493 	492 	40
f 491 	40 	492
f 362 	493 	494
f 362 	494 	365
f 365 	494 	495
f 365 	495 	367
f 493 	40 	494
f 369 	496 	233
f 369 	233 	189
f 47 	338 	336
f 367 	495 	497
f 367 	497 	374
f 374 	497 	498
f 374 	498 	380
f 498 	497 	40
f 497 	495 	40
f 495 	494 	40
f 380 	498 	499
f 380 	499 	383
f 383 	499 	500
f 383 	500 	387
f 387 	500 	501
f 387 	501 	388
f 388 	501 	496
f 388 	496 	369
f 496 	501 	56
f 500 	56 	501
f 243 	233 	56
f 499 	498 	56
f 40 	56 	498
f 500 	499 	56
# 1022 faces

 #end of obj_0

