# Object Export From Tinkercad Server 2015

mtllib obj.mtl

o obj_0
v 6.3 		-22.998 		0.5
v 6.3 		-22.998 		0
v 6.3 		-22 		0
v 6.3 		-22 		0.5
v 6.3 		-26 		0.5
v 6.3 		-26 		0
v 6.3 		-25.003 		0
v 6.3 		-25.003 		0.5
v 1 		-22 		0.5
v 1 		-22 		0
v 1 		-22.998 		0
v 1 		-22.998 		0.5
v 1 		-25.003 		0.5
v 1 		-25.003 		0
v 1 		-26 		0
v 1 		-26 		0.5
v 3.612 		-24.776 		4
v 3.574 		-24.774 		4
v 3.536 		-24.769 		4
v 4.78 		-23.466 		4
v 4.752 		-23.411 		4
v 2.955 		-22.961 		0.5
v 3.007 		-22.928 		0.5
v 4.722 		-23.358 		4
v 4.689 		-23.306 		4
v 4.654 		-23.256 		4
v 4.616 		-23.207 		4
v 4.576 		-23.161 		4
v 4.534 		-23.116 		4
v 3.498 		-24.762 		4
v 4.489 		-23.074 		4
v 4.443 		-23.034 		4
v 2.905 		-22.996 		0.5
v 4.846 		-23.637 		4
v 4.827 		-23.579 		4
v 4.805 		-23.522 		4
v 2.893 		-23.0055 		0.5
v 3.461 		-24.754 		4
v 3.947 		-23.281 		4
v 3.424 		-24.744 		4
v 2.857 		-23.034 		0.5
v 3.982 		-23.297 		4
v 4.016 		-23.314 		4
v 2.81 		-23.074 		0.5
v 4.049 		-23.333 		4
v 2.766 		-23.116 		0.5
v 3.912 		-24.732 		4
v 2.724 		-23.161 		0.5
v 4.082 		-23.353 		4
v 2.683 		-23.207 		0.5
v 4.113 		-23.375 		4
v 2.646 		-23.256 		0.5
v 3.875 		-24.744 		4
v 2.61 		-23.306 		0.5
v 4.143 		-23.399 		4
v 3.839 		-24.754 		4
v 2.578 		-23.358 		0.5
v 2.547 		-23.411 		0.5
v 3.801 		-24.762 		4
v 3.552 		-23.508 		0.5
v 3.764 		-24.769 		4
v 3.528 		-23.513 		0.5
v 4.128 		-22.845 		4
v 4.071 		-22.823 		4
v 4.013 		-22.804 		4
v 3.953 		-22.788 		4
v 3.576 		-23.504 		0.5
v 3.726 		-24.774 		4
v 4.172 		-23.424 		4
v 3.688 		-24.776 		4
v 3.601 		-23.501 		0.5
v 3.65 		-24.777 		4
v 3.625 		-23.499 		0.5
v 2.905 		-25.004 		4
v 4.2 		-23.45 		4
v 2.955 		-25.04 		4
v 4.226 		-23.478 		4
v 3.007 		-25.072 		4
v 3.65 		-23.498 		0.5
v 4.251 		-23.507 		4
v 3.061 		-25.103 		4
v 4.274 		-23.537 		4
v 3.661 		-23.4985 		0.5
v 4.296 		-23.568 		4
v 3.458 		-24.463 		1.95
v 3.435 		-24.453 		1.95
v 3.413 		-24.442 		1.95
v 4.317 		-23.6 		4
v 3.115 		-25.13 		4
v 3.674 		-23.499 		0.5
v 4.335 		-23.633 		4
v 3.171 		-25.155 		4
v 4.353 		-23.667 		4
v 4.143 		-24.601 		1.95
v 3.699 		-23.501 		0.5
v 3.229 		-25.177 		4
v 3.723 		-23.504 		0.5
v 2.52 		-23.466 		0.5
v 3.748 		-23.508 		0.5
v 2.495 		-23.522 		0.5
v 2.473 		-23.579 		0.5
v 4.184 		-22.87 		4
v 3.7685 		-23.5123 		0.5
v 4.274 		-24.463 		4
v 2.454 		-23.637 		0.5
v 4.394 		-22.996 		4
v 4.344 		-22.961 		4
v 4.292 		-22.928 		4
v 4.239 		-22.898 		4
v 2.4395 		-23.688 		0.5
v 3.819 		-23.527 		0.5
v 4.251 		-24.493 		4
v 3.795 		-23.52 		0.5
v 2.437 		-23.697 		0.5
v 3.772 		-23.513 		0.5
v 2.424 		-23.756 		0.5
v 4.368 		-23.702 		4
v 2.413 		-23.817 		0.5
v 4.382 		-23.738 		4
v 2.406 		-23.878 		0.5
v 4.394 		-24.225 		4
v 2.401 		-23.939 		0.5
v 4.394 		-23.774 		4
v 2.4 		-24 		0.5
v 3.842 		-23.536 		0.5
v 4.382 		-24.262 		4
v 2.401 		-24.062 		0.5
v 4.404 		-23.811 		4
v 3.864 		-23.546 		0.5
v 2.406 		-24.123 		0.5
v 4.368 		-24.297 		4
v 2.413 		-24.184 		0.5
v 4.412 		-23.848 		4
v 3.886 		-23.557 		0.5
v 2.4159 		-24.2 		0.5
v 4.353 		-24.332 		4
v 4.419 		-23.886 		4
v 2.424 		-24.244 		0.5
v 3.908 		-23.57 		0.5
v 4.335 		-24.366 		4
v 4.424 		-23.924 		4
v 2.437 		-24.304 		0.5
v 4.317 		-24.399 		4
v 4.426 		-23.962 		4
v 2.454 		-24.363 		0.5
v 3.917 		-23.5759 		0.5
v 2.473 		-24.421 		0.5
v 4.427 		-24 		4
v 4.296 		-24.432 		4
v 2.495 		-24.479 		0.5
v 2.52 		-24.535 		0.5
v 4.426 		-24.038 		4
v 2.547 		-24.589 		0.5
v 4.424 		-24.076 		4
v 2.578 		-24.643 		0.5
v 2.61 		-24.695 		0.5
v 4.419 		-24.114 		4
v 2.6222 		-24.712 		0.5
v 4.412 		-24.151 		4
v 2.905 		-25.004 		0.5
v 4.404 		-24.189 		4
v 2.893 		-24.9948 		0.5
v 2.955 		-25.04 		0.5
v 3.007 		-25.072 		0.5
v 3.061 		-25.103 		0.5
v 3.115 		-25.13 		0.5
v 3.148 		-25.1447 		0.5
v 4.9 		-24 		4
v 4.898 		-23.939 		4
v 4.894 		-23.878 		4
v 2.646 		-24.745 		0.5
v 4.886 		-23.817 		4
v 4.876 		-23.756 		4
v 4.862 		-23.697 		4
v 3.287 		-25.196 		4
v 4.886 		-24.184 		4
v 4.894 		-24.123 		4
v 4.898 		-24.062 		4
v 4.113 		-24.624 		1.95
v 3.908 		-24.43 		1.95
v 4.082 		-24.646 		1.95
v 3.886 		-24.442 		1.95
v 3.864 		-24.453 		1.95
v 4.049 		-24.667 		1.95
v 3.842 		-24.463 		1.95
v 3.819 		-24.472 		1.95
v 4.016 		-24.685 		1.95
v 3.795 		-24.48 		1.95
v 3.982 		-24.703 		1.95
v 4.172 		-24.576 		1.95
v 4.2 		-24.55 		1.95
v 4.226 		-24.522 		1.95
v 3.917 		-24.501 		1.95
v 2.683 		-24.793 		0.5
v 4.226 		-24.522 		4
v 2.724 		-24.84 		0.5
v 2.766 		-24.884 		0.5
v 2.81 		-24.926 		0.5
v 4.2 		-24.55 		4
v 4.827 		-24.421 		4
v 4.846 		-24.363 		4
v 4.862 		-24.304 		4
v 4.876 		-24.244 		4
v 2.857 		-24.967 		0.5
v 4.805 		-24.479 		4
v 4.172 		-24.576 		4
v 3.772 		-24.486 		1.95
v 4.143 		-24.601 		4
v 3.748 		-24.492 		1.95
v 3.723 		-24.496 		1.95
v 3.346 		-25.213 		4
v 3.699 		-24.499 		1.95
v 4.113 		-24.624 		4
v 3.674 		-24.501 		1.95
v 3.186 		-24.192 		1.95
v 4.082 		-24.646 		4
v 4.049 		-24.667 		4
v 3.177 		-24.169 		1.95
v 3.17 		-24.145 		1.95
v 3.163 		-24.122 		1.95
v 4.016 		-24.685 		4
v 3.158 		-24.098 		1.95
v 3.154 		-24.073 		1.95
v 3.982 		-24.703 		4
v 3.151 		-24.049 		1.95
v 3.149 		-24.024 		1.95
v 3.148 		-24 		1.95
v 3.149 		-23.975 		1.95
v 3.151 		-23.951 		1.95
v 3.154 		-23.926 		1.95
v 3.158 		-23.902 		1.95
v 4.689 		-24.695 		4
v 4.722 		-24.643 		4
v 4.752 		-24.589 		4
v 4.78 		-24.535 		4
v 5.297 		-22.998 		0
v 5.297 		-25.003 		0
v 2.002 		-22.998 		0
v 3.424 		-23.256 		4
v 2.002 		-25.003 		0
v 3.392 		-24.43 		0
v 3.461 		-23.246 		4
v 3.371 		-24.417 		0
v 3.351 		-24.403 		0
v 3.332 		-24.388 		0
v 3.498 		-23.237 		4
v 3.313 		-24.371 		0
v 3.388 		-24.732 		4
v 3.295 		-24.354 		0
v 3.536 		-23.231 		4
v 3.278 		-24.337 		0
v 3.352 		-24.718 		4
v 3.262 		-24.318 		0
v 3.574 		-23.226 		4
v 3.247 		-24.299 		0
v 3.233 		-24.278 		0
v 3.612 		-23.223 		4
v 3.22 		-24.258 		0
v 3.207 		-24.236 		0
v 3.65 		-23.222 		4
v 3.196 		-24.214 		0
v 3.688 		-23.223 		4
v 3.726 		-23.226 		4
v 3.601 		-24.499 		0
v 3.625 		-24.501 		0
v 3.576 		-24.496 		0
v 3.764 		-23.231 		4
v 3.552 		-24.492 		0
v 3.504 		-24.48 		0
v 3.163 		-23.878 		1.95
v 3.801 		-23.237 		4
v 3.839 		-23.246 		4
v 3.17 		-23.854 		1.95
v 3.177 		-23.831 		1.95
v 3.875 		-23.256 		4
v 3.186 		-23.808 		1.95
v 3.912 		-23.268 		4
v 3.196 		-23.785 		1.95
v 3.207 		-23.763 		1.95
v 3.233 		-23.721 		1.95
v 3.247 		-23.701 		1.95
v 3.65 		-22.75 		4
v 3.588 		-22.752 		4
v 3.527 		-22.756 		4
v 3.466 		-22.764 		4
v 3.406 		-22.774 		4
v 3.625 		-24.501 		0.5
v 3.894 		-22.774 		4
v 3.833 		-22.764 		4
v 3.772 		-22.756 		4
v 3.711 		-22.752 		4
v 3.481 		-24.472 		0
v 3.157 		-23.399 		4
v 3.458 		-24.463 		0
v 3.435 		-24.453 		0
v 3.187 		-23.375 		4
v 3.413 		-24.442 		0
v 3.218 		-23.353 		4
v 3.25 		-23.333 		4
v 3.908 		-24.43 		0
v 3.886 		-24.442 		0
v 3.283 		-23.314 		4
v 3.864 		-24.453 		0
v 3.317 		-23.297 		4
v 3.842 		-24.463 		0
v 3.352 		-23.281 		4
v 3.819 		-24.472 		0
v 3.795 		-24.48 		0
v 3.388 		-23.268 		4
v 3.772 		-24.486 		0
v 3.748 		-24.492 		0
v 3.723 		-24.496 		0
v 3.699 		-24.499 		0
v 3.674 		-24.501 		0
v 3.186 		-24.192 		0
v 3.346 		-22.788 		4
v 3.287 		-22.804 		4
v 3.229 		-22.823 		4
v 3.171 		-22.845 		4
v 3.177 		-24.169 		0
v 3.163 		-24.122 		0
v 3.17 		-24.145 		0
v 2.947 		-23.667 		4
v 3.158 		-24.098 		0
v 2.964 		-23.633 		4
v 3.154 		-24.073 		0
v 2.983 		-23.6 		4
v 3.151 		-24.049 		0
v 3.149 		-24.024 		0
v 3.003 		-23.568 		4
v 3.148 		-24 		0
v 3.149 		-23.975 		0
v 3.025 		-23.537 		4
v 3.151 		-23.951 		0
v 3.049 		-23.507 		4
v 3.674 		-24.501 		0.5
v 3.154 		-23.926 		0
v 3.074 		-23.478 		4
v 3.158 		-23.902 		0
v 3.1 		-23.45 		4
v 3.163 		-23.878 		0
v 3.17 		-23.854 		0
v 3.128 		-23.424 		4
v 3.177 		-23.831 		0
v 3.186 		-23.808 		0
v 3.196 		-23.785 		0
v 3.207 		-23.763 		0
v 3.233 		-23.721 		0
v 3.115 		-22.87 		4
v 3.061 		-22.898 		4
v 3.007 		-22.928 		4
v 2.955 		-22.961 		4
v 2.905 		-22.996 		4
v 3.247 		-23.701 		0
v 3.317 		-24.703 		4
v 3.283 		-24.685 		4
v 4.103 		-24.214 		0
v 3.625 		-24.501 		1.95
v 3.25 		-24.667 		4
v 4.092 		-24.236 		0
v 4.08 		-24.258 		0
v 3.218 		-24.646 		4
v 4.067 		-24.278 		0
v 3.187 		-24.624 		4
v 4.053 		-24.299 		0
v 3.157 		-24.601 		4
v 4.038 		-24.318 		0
v 4.021 		-24.337 		0
v 3.128 		-24.576 		4
v 3.1 		-24.55 		4
v 3.074 		-24.522 		4
v 3.049 		-24.493 		4
v 3.025 		-24.463 		4
v 3.003 		-24.432 		4
v 2.983 		-24.399 		4
v 2.964 		-24.366 		4
v 2.947 		-24.332 		4
v 2.931 		-24.297 		4
v 3.405 		-22.7742 		0.5
v 3.346 		-22.788 		0.5
v 2.918 		-24.262 		4
v 3.287 		-22.804 		0.5
v 2.906 		-24.225 		4
v 3.229 		-22.823 		0.5
v 3.171 		-22.845 		0.5
v 2.896 		-24.189 		4
v 3.148 		-22.8553 		0.5
v 3.115 		-22.87 		0.5
v 2.896 		-23.811 		4
v 3.061 		-22.898 		0.5
v 2.906 		-23.774 		4
v 2.918 		-23.738 		4
v 2.931 		-23.702 		4
v 3.262 		-23.682 		0.5
v 3.2573 		-23.688 		0.5
v 3.278 		-23.663 		0.5
v 3.295 		-23.645 		0.5
v 2.857 		-23.034 		4
v 2.81 		-23.074 		4
v 2.766 		-23.116 		4
v 2.724 		-23.161 		4
v 2.683 		-23.207 		4
v 2.646 		-23.256 		4
v 2.61 		-23.306 		4
v 2.578 		-23.358 		4
v 2.547 		-23.411 		4
v 2.52 		-23.466 		4
v 2.495 		-23.522 		4
v 2.473 		-23.579 		4
v 2.454 		-23.637 		4
v 3.313 		-23.628 		0.5
v 3.332 		-23.612 		0.5
v 2.887 		-24.151 		4
v 3.351 		-23.597 		0.5
v 3.371 		-23.583 		0.5
v 2.881 		-24.114 		4
v 3.405 		-23.562 		0.5
v 2.876 		-24.076 		4
v 2.873 		-24.038 		4
v 2.872 		-24 		4
v 2.873 		-23.962 		4
v 2.876 		-23.924 		4
v 2.881 		-23.886 		4
v 2.887 		-23.848 		4
v 2.437 		-23.697 		4
v 2.424 		-23.756 		4
v 2.413 		-23.817 		4
v 2.406 		-23.878 		4
v 2.401 		-23.939 		4
v 2.4 		-24 		4
v 2.401 		-24.062 		4
v 2.406 		-24.123 		4
v 2.413 		-24.184 		4
v 3.405 		-24.4374 		0.5
v 3.392 		-24.43 		0.5
v 3.371 		-24.417 		0.5
v 3.351 		-24.403 		0.5
v 2.424 		-24.244 		4
v 2.437 		-24.304 		4
v 2.454 		-24.363 		4
v 2.473 		-24.421 		4
v 2.495 		-24.479 		4
v 2.52 		-24.535 		4
v 2.547 		-24.589 		4
v 2.578 		-24.643 		4
v 2.61 		-24.695 		4
v 3.317 		-24.703 		1.95
v 3.987 		-24.371 		0
v 3.283 		-24.685 		1.95
v 3.968 		-24.388 		0
v 4.443 		-24.967 		4
v 4.489 		-24.926 		4
v 3.25 		-24.667 		1.95
v 4.534 		-24.884 		4
v 4.576 		-24.84 		4
v 4.616 		-24.793 		4
v 4.654 		-24.745 		4
v 3.949 		-24.403 		0
v 3.218 		-24.646 		1.95
v 3.928 		-24.417 		0
v 3.947 		-24.718 		4
v 3.187 		-24.624 		1.95
v 3.157 		-24.601 		1.95
v 3.148 		-24.501 		1.95
v 3.953 		-25.213 		4
v 4.013 		-25.196 		4
v 4.071 		-25.177 		4
v 4.128 		-25.155 		4
v 4.184 		-25.13 		4
v 4.239 		-25.103 		4
v 4.292 		-25.072 		4
v 4.344 		-25.04 		4
v 4.394 		-25.004 		4
v 3.128 		-24.576 		1.95
v 3.1 		-24.55 		1.95
v 3.074 		-24.522 		1.95
v 3.049 		-24.493 		1.95
v 3.025 		-24.463 		1.95
v 3.003 		-24.432 		1.95
v 2.983 		-24.399 		1.95
v 2.964 		-24.366 		1.95
v 2.947 		-24.332 		1.95
v 3.588 		-25.249 		4
v 3.65 		-25.25 		4
v 3.711 		-25.249 		4
v 3.772 		-25.244 		4
v 3.833 		-25.237 		4
v 3.894 		-25.226 		4
v 3.406 		-25.226 		4
v 3.466 		-25.237 		4
v 3.527 		-25.244 		4
v 2.646 		-24.745 		4
v 2.683 		-24.793 		4
v 2.724 		-24.84 		4
v 2.766 		-24.884 		4
v 2.81 		-24.926 		4
v 2.857 		-24.967 		4
v 4.149 		-23.951 		0
v 4.151 		-23.975 		0
v 4.149 		-24.049 		0
v 4.151 		-24.024 		0
v 4.146 		-24.073 		0
v 4.142 		-24.098 		0
v 4.136 		-24.122 		0
v 2.931 		-24.297 		1.95
v 2.918 		-24.262 		1.95
v 2.906 		-24.225 		1.95
v 2.896 		-24.189 		1.95
v 2.896 		-23.811 		1.95
v 2.906 		-23.774 		1.95
v 2.918 		-23.738 		1.95
v 2.931 		-23.702 		1.95
v 4.13 		-24.145 		0
v 4.122 		-24.169 		0
v 4.113 		-24.192 		0
v 2.887 		-24.151 		1.95
v 2.881 		-24.114 		1.95
v 2.876 		-24.076 		1.95
v 2.873 		-24.038 		1.95
v 2.872 		-24 		1.95
v 2.873 		-23.962 		1.95
v 2.876 		-23.924 		1.95
v 2.881 		-23.886 		1.95
v 3.332 		-24.388 		0.5
v 2.887 		-23.848 		1.95
v 3.313 		-24.371 		0.5
v 3.295 		-24.354 		0.5
v 3.278 		-24.337 		0.5
v 3.262 		-24.318 		0.5
v 3.247 		-24.299 		0.5
v 4.8833 		-24.2 		0.5
v 4.886 		-24.184 		0.5
v 3.233 		-24.278 		0.5
v 4.894 		-24.123 		0.5
v 4.898 		-24.062 		0.5
v 3.22 		-24.258 		0.5
v 4.9 		-24 		0.5
v 3.207 		-24.236 		0.5
v 4.898 		-23.939 		0.5
v 3.196 		-24.214 		0.5
v 4.894 		-23.878 		0.5
v 4.886 		-23.817 		0.5
v 3.1896 		-24.2 		0.5
v 4.876 		-23.756 		0.5
v 4.862 		-23.697 		0.5
v 3.601 		-24.499 		0.5
v 4.8596 		-23.688 		0.5
v 3.576 		-24.496 		0.5
v 4.1482 		-23.944 		0.5
v 4.149 		-23.951 		0.5
v 3.552 		-24.492 		0.5
v 4.053 		-23.701 		0
v 4.067 		-23.721 		0
v 3.504 		-24.48 		0.5
v 4.08 		-23.742 		0
v 4.151 		-23.975 		0.5
v 4.092 		-23.763 		0
v 4.103 		-23.785 		0
v 4.149 		-24.049 		0.5
v 3.481 		-24.472 		0.5
v 4.113 		-23.808 		0
v 4.151 		-24.024 		0.5
v 4.122 		-23.831 		0
v 4.13 		-23.854 		0
v 4.146 		-24.073 		0.5
v 3.458 		-24.463 		0.5
v 4.142 		-24.098 		0.5
v 3.435 		-24.453 		0.5
v 4.136 		-24.122 		0.5
v 3.413 		-24.442 		0.5
v 4.13 		-24.145 		0.5
v 4.122 		-24.169 		0.5
v 3.917 		-24.4242 		0.5
v 3.908 		-24.43 		0.5
v 4.113 		-24.192 		0.5
v 3.886 		-24.442 		0.5
v 4.1094 		-24.2 		0.5
v 3.864 		-24.453 		0.5
v 4.0427 		-23.688 		0.5
v 4.053 		-23.701 		0.5
v 3.842 		-24.463 		0.5
v 4.067 		-23.721 		0.5
v 3.819 		-24.472 		0.5
v 4.08 		-23.742 		0.5
v 3.795 		-24.48 		0.5
v 4.092 		-23.763 		0.5
v 3.772 		-24.486 		0.5
v 3.748 		-24.492 		0.5
v 4.103 		-23.785 		0.5
v 4.142 		-23.902 		0
v 4.146 		-23.926 		0
v 3.723 		-24.496 		0.5
v 4.113 		-23.808 		0.5
v 3.262 		-23.682 		0
v 3.278 		-23.663 		0
v 3.699 		-24.499 		0.5
v 3.295 		-23.645 		0
v 4.122 		-23.831 		0.5
v 3.313 		-23.628 		0
v 3.332 		-23.612 		0
v 3.351 		-23.597 		0
v 4.13 		-23.854 		0.5
v 3.371 		-23.583 		0
v 3.186 		-24.192 		0.5
v 3.1784 		-24.1725 		0.5
v 3.163 		-24.122 		0.5
v 3.17 		-24.145 		0.5
v 3.177 		-24.169 		0.5
v 3.158 		-24.098 		0.5
v 3.947 		-24.718 		1.95
v 3.154 		-24.073 		0.5
v 3.151 		-24.049 		0.5
v 3.149 		-24.024 		0.5
v 3.148 		-24 		0.5
v 3.149 		-23.975 		0.5
v 3.151 		-23.951 		0.5
v 3.1518 		-23.944 		0.5
v 3.154 		-23.926 		0.5
v 3.158 		-23.902 		0.5
v 4.429 		-24.9776 		0.5
v 4.443 		-24.967 		0.5
v 3.163 		-23.878 		0.5
v 4.489 		-24.926 		0.5
v 4.534 		-24.884 		0.5
v 4.576 		-24.84 		0.5
v 3.17 		-23.854 		0.5
v 4.616 		-24.793 		0.5
v 4.654 		-24.745 		0.5
v 3.177 		-23.831 		0.5
v 4.6771 		-24.712 		0.5
v 3.917 		-25.2209 		0.5
v 3.953 		-25.213 		0.5
v 4.013 		-25.196 		0.5
v 4.071 		-25.177 		0.5
v 4.128 		-25.155 		0.5
v 4.184 		-25.13 		0.5
v 4.239 		-25.103 		0.5
v 4.292 		-25.072 		0.5
v 4.344 		-25.04 		0.5
v 4.394 		-25.004 		0.5
v 3.186 		-23.808 		0.5
v 3.196 		-23.785 		0.5
v 3.207 		-23.763 		0.5
v 4.142 		-23.902 		0.5
v 3.233 		-23.721 		0.5
v 4.146 		-23.926 		0.5
v 3.247 		-23.701 		0.5
v 3.65 		-24.777 		1.95
v 3.612 		-24.776 		1.95
v 3.574 		-24.774 		1.95
v 3.536 		-24.769 		1.95
v 3.498 		-24.762 		1.95
v 3.461 		-24.754 		1.95
v 3.424 		-24.744 		1.95
v 3.912 		-24.732 		1.95
v 3.875 		-24.744 		1.95
v 3.839 		-24.754 		1.95
v 3.801 		-24.762 		1.95
v 3.764 		-24.769 		1.95
v 3.726 		-24.774 		1.95
v 3.688 		-24.776 		1.95
v 3.928 		-23.583 		1.95
v 3.949 		-23.597 		1.95
v 3.968 		-23.612 		1.95
v 3.987 		-23.628 		1.95
v 4.004 		-23.645 		1.95
v 4.021 		-23.663 		1.95
v 4.038 		-23.682 		1.95
v 3.388 		-24.732 		1.95
v 3.352 		-24.718 		1.95
v 3.413 		-23.557 		0
v 3.435 		-23.546 		0
v 3.458 		-23.536 		0
v 3.481 		-23.527 		0
v 3.504 		-23.52 		0
v 3.528 		-23.513 		0
v 3.552 		-23.508 		0
v 3.576 		-23.504 		0
v 3.601 		-23.501 		0
v 3.625 		-23.499 		0
v 3.65 		-23.498 		0
v 3.674 		-23.499 		0
v 3.699 		-23.501 		0
v 3.723 		-23.504 		0
v 3.748 		-23.508 		0
v 3.772 		-23.513 		0
v 3.819 		-23.527 		0
v 3.795 		-23.52 		0
v 3.842 		-23.536 		0
v 3.864 		-23.546 		0
v 3.886 		-23.557 		0
v 3.908 		-23.57 		0
v 3.928 		-23.583 		0
v 3.949 		-23.597 		0
v 3.968 		-23.612 		0
v 3.987 		-23.628 		0
v 4.004 		-23.645 		0
v 4.021 		-23.663 		0
v 3.917 		-23.498 		1.95
v 4.151 		-23.688 		1.95
v 3.947 		-23.281 		1.95
v 3.982 		-23.297 		1.95
v 4.016 		-23.314 		1.95
v 3.65 		-25.25 		0.5
v 3.711 		-25.249 		0.5
v 4.049 		-23.333 		1.95
v 3.772 		-25.244 		0.5
v 3.833 		-25.237 		0.5
v 4.082 		-23.353 		1.95
v 3.894 		-25.226 		0.5
v 3.406 		-25.226 		0.5
v 4.113 		-23.375 		1.95
v 3.405 		-25.2258 		0.5
v 3.466 		-25.237 		0.5
v 3.527 		-25.244 		0.5
v 4.143 		-23.399 		1.95
v 3.588 		-25.249 		0.5
v 3.171 		-25.155 		0.5
v 3.229 		-25.177 		0.5
v 3.287 		-25.196 		0.5
v 4.172 		-23.424 		1.95
v 3.346 		-25.213 		0.5
v 4.689 		-24.695 		0.5
v 4.722 		-24.643 		0.5
v 4.2 		-23.45 		1.95
v 4.752 		-24.589 		0.5
v 4.78 		-24.535 		0.5
v 4.226 		-23.478 		1.95
v 4.7952 		-24.501 		0.5
v 4.805 		-24.479 		0.5
v 4.251 		-23.507 		1.95
v 4.827 		-24.421 		0.5
v 4.274 		-23.537 		1.95
v 4.846 		-24.363 		0.5
v 4.296 		-23.568 		1.95
v 4.862 		-24.304 		0.5
v 4.876 		-24.244 		0.5
v 4.317 		-23.6 		1.95
v 4.335 		-23.633 		1.95
v 4.103 		-24.214 		0.5
v 4.353 		-23.667 		1.95
v 4.092 		-24.236 		0.5
v 4.08 		-24.258 		0.5
v 4.067 		-24.278 		0.5
v 4.053 		-24.299 		0.5
v 4.038 		-24.318 		0.5
v 4.021 		-24.337 		0.5
v 3.987 		-24.371 		0.5
v 3.968 		-24.388 		0.5
v 3.949 		-24.403 		0.5
v 3.928 		-24.417 		0.5
v 5.297 		-22.998 		0.5
v 5.297 		-25.003 		0.5
v 2.002 		-22.998 		0.5
v 2.002 		-25.003 		0.5
v 3.65 		-22.75 		0.5
v 4.128 		-22.845 		0.5
v 4.151 		-22.8553 		0.5
v 4.071 		-22.823 		0.5
v 4.013 		-22.804 		0.5
v 3.953 		-22.788 		0.5
v 3.917 		-22.7795 		0.5
v 3.894 		-22.774 		0.5
v 3.833 		-22.764 		0.5
v 3.772 		-22.756 		0.5
v 3.711 		-22.752 		0.5
v 3.588 		-22.752 		0.5
v 3.527 		-22.756 		0.5
v 3.466 		-22.764 		0.5
v 3.406 		-22.774 		0.5
v 4.038 		-23.682 		0
v 3.413 		-23.557 		1.95
v 3.435 		-23.546 		1.95
v 3.458 		-23.536 		1.95
v 3.481 		-23.527 		1.95
v 3.504 		-23.52 		1.95
v 3.528 		-23.513 		1.95
v 3.552 		-23.508 		1.95
v 3.576 		-23.504 		1.95
v 4.846 		-23.637 		0.5
v 3.601 		-23.501 		1.95
v 4.827 		-23.579 		0.5
v 3.625 		-23.499 		1.95
v 4.805 		-23.522 		0.5
v 4.78 		-23.466 		0.5
v 3.65 		-23.498 		1.95
v 4.752 		-23.411 		0.5
v 4.722 		-23.358 		0.5
v 4.689 		-23.306 		0.5
v 4.654 		-23.256 		0.5
v 3.674 		-23.499 		1.95
v 4.616 		-23.207 		0.5
v 4.576 		-23.161 		0.5
v 4.534 		-23.116 		0.5
v 3.699 		-23.501 		1.95
v 4.489 		-23.074 		0.5
v 4.443 		-23.034 		0.5
v 3.723 		-23.504 		1.95
v 4.429 		-23.0231 		0.5
v 3.748 		-23.508 		1.95
v 4.394 		-22.996 		0.5
v 4.344 		-22.961 		0.5
v 4.292 		-22.928 		0.5
v 4.239 		-22.898 		0.5
v 3.819 		-23.527 		1.95
v 3.795 		-23.52 		1.95
v 4.184 		-22.87 		0.5
v 3.772 		-23.513 		1.95
v 3.842 		-23.536 		1.95
v 3.864 		-23.546 		1.95
v 3.886 		-23.557 		1.95
v 3.908 		-23.57 		1.95
v 3.928 		-23.583 		0.5
v 3.949 		-23.597 		0.5
v 3.968 		-23.612 		0.5
v 3.987 		-23.628 		0.5
v 4.004 		-23.645 		0.5
v 4.021 		-23.663 		0.5
v 4.038 		-23.682 		0.5
v 3.424 		-23.256 		1.95
v 3.461 		-23.246 		1.95
v 3.498 		-23.237 		1.95
v 3.536 		-23.231 		1.95
v 3.574 		-23.226 		1.95
v 3.612 		-23.223 		1.95
v 3.65 		-23.222 		1.95
v 3.688 		-23.223 		1.95
v 3.726 		-23.226 		1.95
v 4.149 		-23.951 		1.95
v 3.764 		-23.231 		1.95
v 4.151 		-23.975 		1.95
v 4.149 		-24.049 		1.95
v 4.151 		-24.024 		1.95
v 4.146 		-24.073 		1.95
v 4.142 		-24.098 		1.95
v 4.136 		-24.122 		1.95
v 4.13 		-24.145 		1.95
v 4.122 		-24.169 		1.95
v 3.801 		-23.237 		1.95
v 4.113 		-24.192 		1.95
v 3.839 		-23.246 		1.95
v 4.053 		-23.701 		1.95
v 3.875 		-23.256 		1.95
v 4.067 		-23.721 		1.95
v 4.08 		-23.742 		1.95
v 3.912 		-23.268 		1.95
v 4.092 		-23.763 		1.95
v 4.103 		-23.785 		1.95
v 4.113 		-23.808 		1.95
v 4.122 		-23.831 		1.95
v 4.13 		-23.854 		1.95
v 4.142 		-23.902 		1.95
v 4.146 		-23.926 		1.95
v 4.368 		-23.702 		1.95
v 4.382 		-23.738 		1.95
v 4.394 		-23.774 		1.95
v 4.404 		-23.811 		1.95
v 4.412 		-23.848 		1.95
v 4.419 		-23.886 		1.95
v 4.424 		-23.924 		1.95
v 4.426 		-23.962 		1.95
v 4.427 		-24 		1.95
v 3.262 		-23.682 		1.95
v 4.426 		-24.038 		1.95
v 4.424 		-24.076 		1.95
v 3.278 		-23.663 		1.95
v 4.419 		-24.114 		1.95
v 3.295 		-23.645 		1.95
v 4.412 		-24.151 		1.95
v 3.313 		-23.628 		1.95
v 4.404 		-24.189 		1.95
v 3.332 		-23.612 		1.95
v 3.351 		-23.597 		1.95
v 3.392 		-24.43 		1.95
v 3.371 		-23.583 		1.95
v 3.371 		-24.417 		1.95
v 3.351 		-24.403 		1.95
v 3.332 		-24.388 		1.95
v 3.313 		-24.371 		1.95
v 3.295 		-24.354 		1.95
v 3.278 		-24.337 		1.95
v 3.262 		-24.318 		1.95
v 3.247 		-24.299 		1.95
v 3.233 		-24.278 		1.95
v 3.22 		-24.258 		1.95
v 3.207 		-24.236 		1.95
v 3.148 		-23.498 		1.95
v 3.196 		-24.214 		1.95
v 3.601 		-24.499 		1.95
v 3.576 		-24.496 		1.95
v 3.157 		-23.399 		1.95
v 3.552 		-24.492 		1.95
v 3.504 		-24.48 		1.95
v 3.187 		-23.375 		1.95
v 3.481 		-24.472 		1.95
v 3.218 		-23.353 		1.95
v 3.25 		-23.333 		1.95
v 3.283 		-23.314 		1.95
v 4.103 		-24.214 		1.95
v 3.317 		-23.297 		1.95
v 4.092 		-24.236 		1.95
v 4.08 		-24.258 		1.95
v 3.352 		-23.281 		1.95
v 4.067 		-24.278 		1.95
v 3.388 		-23.268 		1.95
v 4.053 		-24.299 		1.95
v 4.038 		-24.318 		1.95
v 4.021 		-24.337 		1.95
v 3.987 		-24.371 		1.95
v 3.968 		-24.388 		1.95
v 3.949 		-24.403 		1.95
v 3.928 		-24.417 		1.95
v 2.947 		-23.667 		1.95
v 2.964 		-23.633 		1.95
v 2.983 		-23.6 		1.95
v 3.003 		-23.568 		1.95
v 4.151 		-24.2243 		1.95
v 3.025 		-23.537 		1.95
v 3.049 		-23.507 		1.95
v 3.074 		-23.478 		1.95
v 4.274 		-24.463 		1.95
v 3.1 		-23.45 		1.95
v 4.251 		-24.493 		1.95
v 3.128 		-23.424 		1.95
v 4.394 		-24.225 		1.95
v 4.382 		-24.262 		1.95
v 4.368 		-24.297 		1.95
v 4.353 		-24.332 		1.95
v 4.335 		-24.366 		1.95
v 4.317 		-24.399 		1.95
v 4.296 		-24.432 		1.95
v 3.413 		-23.557 		0.5
v 3.435 		-23.546 		0.5
v 3.458 		-23.536 		0.5
v 3.481 		-23.527 		0.5
v 3.504 		-23.52 		0.5
# 936 vertices

g group_0_15277357

usemtl color_15277357
s 0

f 1 	2 	3
f 1 	3 	4
f 5 	6 	7
f 5 	7 	8
f 9 	10 	11
f 9 	11 	12
f 13 	14 	15
f 13 	15 	16
f 23 	9 	22
f 22 	9 	33
f 33 	9 	37
f 25 	88 	24
f 26 	84 	25
f 27 	80 	26
f 28 	77 	27
f 21 	24 	88
f 29 	75 	28
f 31 	75 	29
f 32 	69 	31
f 20 	21 	93
f 91 	93 	21
f 88 	91 	21
f 37 	9 	41
f 46 	44 	754
f 43 	102 	42
f 44 	41 	754
f 46 	754 	48
f 48 	754 	50
f 50 	754 	52
f 98 	754 	100
f 52 	754 	54
f 54 	754 	57
f 55 	32 	51
f 107 	108 	49
f 32 	106 	51
f 63 	39 	102
f 64 	39 	63
f 267 	271 	289
f 69 	32 	55
f 77 	28 	75
f 80 	27 	77
f 82 	26 	80
f 75 	31 	69
f 84 	26 	82
f 86 	464 	85
f 88 	25 	84
f 119 	123 	35
f 57 	754 	58
f 58 	754 	98
f 174 	34 	123
f 49 	51 	106
f 100 	754 	101
f 105 	754 	110
f 101 	754 	105
f 106 	107 	49
f 45 	49 	108
f 109 	43 	108
f 102 	43 	109
f 110 	754 	114
f 114 	754 	116
f 116 	754 	118
f 133 	137 	173
f 172 	173 	137
f 754 	755 	124
f 137 	141 	172
f 127 	755 	130
f 130 	755 	132
f 135 	132 	755
f 170 	172 	141
f 128 	133 	173
f 169 	170 	141
f 135 	755 	138
f 138 	755 	142
f 141 	144 	169
f 142 	755 	145
f 173 	174 	128
f 145 	755 	147
f 144 	148 	169
f 147 	755 	150
f 150 	755 	151
f 151 	755 	153
f 153 	755 	155
f 159 	203 	157
f 160 	162 	16
f 166 	16 	167
f 158 	755 	171
f 156 	755 	158
f 155 	755 	156
f 16 	204 	755
f 35 	36 	119
f 34 	35 	123
f 117 	119 	36
f 93 	117 	36
f 36 	20 	93
f 123 	128 	174
f 168 	169 	148
f 152 	178 	148
f 154 	178 	152
f 157 	176 	154
f 177 	154 	176
f 202 	203 	161
f 178 	154 	177
f 168 	148 	178
f 87 	464 	86
f 112 	457 	104
f 454 	455 	199
f 183 	193 	182
f 185 	193 	183
f 186 	193 	185
f 90 	791 	83
f 181 	193 	184
f 179 	193 	181
f 94 	193 	179
f 187 	184 	193
f 190 	193 	94
f 191 	193 	190
f 192 	917 	191
f 189 	187 	193
f 205 	200 	126
f 131 	205 	126
f 136 	205 	131
f 143 	234 	140
f 234 	235 	136
f 121 	126 	201
f 104 	457 	149
f 149 	232 	143
f 140 	234 	136
f 200 	201 	126
f 171 	755 	194
f 197 	755 	198
f 194 	755 	196
f 162 	204 	16
f 196 	755 	197
f 198 	755 	204
f 176 	157 	203
f 159 	161 	203
f 161 	121 	202
f 201 	202 	121
f 180 	182 	193
f 188 	193 	186
f 209 	193 	207
f 452 	454 	199
f 212 	193 	210
f 206 	452 	199
f 209 	210 	193
f 214 	193 	212
f 208 	452 	206
f 213 	473 	208
f 216 	473 	213
f 218 	464 	215
f 220 	464 	219
f 217 	472 	216
f 187 	189 	221
f 221 	470 	217
f 222 	464 	220
f 225 	464 	223
f 225 	226 	464
f 227 	464 	226
f 224 	470 	221
f 234 	143 	233
f 887 	227 	228
f 887 	228 	229
f 47 	53 	466
f 887 	229 	230
f 231 	887 	230
f 205 	136 	235
f 2 	236 	3
f 6 	237 	7
f 10 	238 	11
f 14 	240 	15
f 286 	316 	246
f 243 	241 	240
f 241 	297 	240
f 254 	285 	250
f 250 	285 	246
f 249 	247 	240
f 247 	245 	240
f 253 	251 	240
f 251 	249 	240
f 255 	253 	240
f 282 	283 	260
f 257 	260 	283
f 258 	256 	240
f 259 	258 	240
f 265 	314 	15
f 270 	887 	231
f 272 	275 	65
f 273 	887 	270
f 275 	277 	65
f 274 	887 	273
f 276 	887 	274
f 278 	887 	276
f 279 	887 	278
f 280 	887 	279
f 281 	887 	280
f 64 	65 	277
f 64 	277 	39
f 42 	102 	39
f 45 	108 	43
f 285 	254 	284
f 286 	246 	285
f 254 	257 	284
f 283 	284 	257
f 262 	291 	260
f 289 	290 	263
f 288 	289 	271
f 66 	288 	271
f 263 	267 	289
f 65 	66 	272
f 271 	272 	66
f 263 	290 	262
f 291 	262 	290
f 282 	260 	291
f 269 	268 	240
f 292 	269 	240
f 352 	353 	298
f 245 	244 	240
f 244 	243 	240
f 297 	295 	240
f 295 	294 	240
f 294 	292 	240
f 350 	351 	302
f 302 	304 	349
f 293 	296 	398
f 306 	309 	318
f 300 	237 	301
f 317 	318 	239
f 303 	301 	237
f 305 	303 	237
f 316 	317 	239
f 307 	305 	237
f 308 	307 	237
f 310 	237 	311
f 312 	311 	237
f 313 	312 	237
f 309 	239 	318
f 239 	242 	316
f 242 	246 	316
f 304 	306 	349
f 319 	349 	306
f 318 	319 	306
f 349 	350 	302
f 261 	259 	240
f 71 	781 	67
f 315 	261 	240
f 73 	783 	71
f 320 	315 	240
f 325 	407 	323
f 322 	320 	240
f 73 	79 	783
f 327 	405 	325
f 321 	322 	240
f 326 	324 	240
f 324 	321 	240
f 335 	338 	401
f 328 	326 	240
f 331 	329 	240
f 399 	400 	340
f 338 	340 	401
f 334 	332 	238
f 337 	334 	238
f 339 	337 	238
f 343 	293 	398
f 398 	399 	343
f 351 	352 	298
f 341 	339 	238
f 342 	341 	238
f 287 	214 	336
f 346 	238 	347
f 299 	302 	351
f 298 	299 	351
f 296 	298 	353
f 398 	296 	353
f 347 	238 	348
f 345 	238 	346
f 137 	133 	859
f 858 	859 	133
f 348 	238 	354
f 859 	860 	137
f 358 	214 	287
f 497 	74 	366
f 360 	357 	237
f 366 	369 	497
f 95 	791 	90
f 493 	494 	371
f 369 	370 	496
f 496 	497 	369
f 372 	373 	493
f 492 	493 	373
f 376 	445 	375
f 377 	443 	376
f 373 	374 	492
f 378 	443 	377
f 375 	445 	374
f 383 	440 	381
f 381 	441 	378
f 408 	409 	393
f 323 	407 	393
f 392 	393 	409
f 402 	403 	333
f 333 	335 	402
f 330 	333 	403
f 401 	402 	335
f 404 	330 	403
f 405 	330 	404
f 406 	325 	405
f 407 	325 	406
f 410 	391 	409
f 408 	393 	407
f 330 	405 	327
f 400 	401 	340
f 340 	343 	399
f 429 	430 	420
f 420 	421 	429
f 428 	429 	421
f 416 	433 	413
f 421 	422 	428
f 422 	423 	427
f 397 	868 	396
f 424 	389 	425
f 426 	427 	424
f 868 	397 	411
f 389 	391 	425
f 410 	425 	391
f 392 	409 	391
f 652 	30 	19
f 459 	362 	359
f 932 	772 	417
f 652 	653 	30
f 427 	428 	422
f 423 	424 	427
f 426 	424 	425
f 419 	420 	431
f 431 	432 	419
f 430 	431 	420
f 418 	419 	432
f 432 	433 	418
f 416 	418 	433
f 365 	363 	237
f 363 	361 	237
f 438 	439 	413
f 438 	413 	433
f 386 	413 	439
f 439 	440 	386
f 383 	386 	440
f 441 	381 	440
f 442 	378 	441
f 443 	378 	442
f 444 	376 	443
f 445 	376 	444
f 446 	374 	445
f 492 	374 	446
f 368 	367 	237
f 367 	365 	237
f 449 	453 	359
f 195 	199 	455
f 456 	195 	455
f 457 	112 	456
f 232 	149 	457
f 233 	143 	232
f 448 	368 	237
f 359 	453 	459
f 450 	448 	237
f 366 	462 	463
f 451 	452 	208
f 465 	466 	56
f 195 	456 	112
f 56 	657 	59
f 252 	447 	355
f 462 	358 	463
f 459 	358 	462
f 453 	358 	459
f 449 	358 	453
f 449 	356 	447
f 355 	447 	356
f 449 	359 	356
f 224 	461 	468
f 469 	224 	468
f 461 	47 	468
f 470 	224 	469
f 471 	217 	470
f 472 	217 	471
f 451 	208 	473
f 473 	216 	472
f 72 	17 	483
f 449 	447 	358
f 464 	463 	358
f 358 	648 	214
f 659 	658 	214
f 112 	104 	923
f 921 	923 	104
f 362 	459 	462
f 362 	462 	364
f 489 	490 	19
f 491 	483 	18
f 364 	462 	366
f 192 	195 	923
f 30 	38 	489
f 19 	490 	18
f 474 	369 	463
f 40 	211 	38
f 211 	489 	38
f 92 	96 	248
f 925 	126 	121
f 928 	136 	131
f 61 	68 	487
f 928 	140 	136
f 68 	70 	485
f 70 	72 	485
f 484 	485 	72
f 59 	61 	488
f 483 	484 	72
f 485 	486 	68
f 930 	149 	143
f 488 	465 	56
f 56 	59 	488
f 53 	56 	466
f 466 	467 	47
f 467 	468 	47
f 487 	488 	61
f 486 	487 	68
f 17 	18 	483
f 19 	30 	489
f 491 	18 	490
f 921 	104 	149
f 252 	92 	248
f 366 	463 	369
f 369 	474 	475
f 252 	355 	92
f 74 	76 	362
f 362 	364 	74
f 364 	366 	74
f 371 	372 	493
f 722 	211 	175
f 211 	40 	175
f 175 	40 	96
f 248 	96 	40
f 495 	496 	370
f 78 	81 	359
f 356 	359 	81
f 355 	356 	81
f 89 	355 	81
f 92 	355 	89
f 40 	654 	248
f 248 	669 	252
f 370 	371 	494
f 495 	370 	494
f 76 	78 	359
f 359 	362 	76
f 310 	308 	237
f 300 	460 	237
f 458 	237 	460
f 458 	450 	237
f 112 	923 	195
f 192 	199 	195
f 392 	511 	393
f 213 	208 	179
f 370 	369 	475
f 181 	216 	179
f 213 	179 	216
f 476 	371 	475
f 370 	475 	371
f 181 	217 	216
f 478 	373 	477
f 511 	392 	510
f 478 	479 	373
f 704 	484 	717
f 187 	221 	217
f 512 	393 	511
f 224 	221 	189
f 477 	476 	464
f 476 	475 	464
f 474 	464 	475
f 463 	464 	474
f 464 	227 	477
f 189 	610 	224
f 505 	482 	227
f 482 	481 	227
f 481 	480 	227
f 506 	505 	227
f 480 	479 	227
f 479 	478 	227
f 478 	477 	227
f 507 	506 	227
f 508 	507 	227
f 516 	508 	227
f 510 	227 	511
f 511 	227 	512
f 887 	919 	227
f 510 	509 	227
f 509 	525 	227
f 525 	523 	227
f 399 	41 	44
f 44 	46 	399
f 54 	57 	405
f 57 	58 	405
f 377 	481 	482
f 101 	105 	410
f 114 	425 	110
f 513 	237 	514
f 17 	72 	649
f 18 	17 	650
f 649 	650 	17
f 45 	43 	703
f 651 	19 	650
f 18 	650 	19
f 371 	476 	477
f 19 	651 	652
f 38 	30 	653
f 40 	38 	654
f 653 	654 	38
f 669 	248 	654
f 519 	227 	520
f 521 	520 	227
f 522 	521 	227
f 523 	522 	227
f 518 	227 	519
f 517 	227 	518
f 516 	227 	517
f 482 	505 	377
f 506 	381 	505
f 383 	381 	507
f 657 	56 	53
f 61 	59 	659
f 477 	372 	371
f 372 	477 	373
f 659 	660 	61
f 68 	61 	660
f 661 	70 	660
f 68 	660 	70
f 480 	375 	374
f 480 	374 	479
f 481 	376 	480
f 70 	661 	72
f 506 	507 	381
f 165 	81 	164
f 508 	386 	507
f 166 	167 	89
f 443 	150 	151
f 361 	360 	237
f 357 	515 	237
f 515 	514 	237
f 151 	153 	443
f 96 	719 	175
f 479 	374 	373
f 722 	175 	720
f 375 	480 	376
f 377 	376 	481
f 505 	378 	377
f 381 	378 	505
f 670 	252 	669
f 670 	447 	252
f 553 	552 	236
f 552 	771 	236
f 555 	553 	236
f 383 	507 	386
f 557 	555 	236
f 386 	508 	413
f 516 	413 	508
f 141 	860 	861
f 438 	433 	135
f 389 	509 	391
f 510 	391 	509
f 135 	138 	438
f 392 	391 	510
f 138 	142 	438
f 148 	862 	864
f 33 	37 	353
f 41 	399 	398
f 399 	46 	400
f 401 	400 	48
f 46 	48 	400
f 48 	50 	402
f 48 	402 	401
f 403 	402 	52
f 50 	52 	402
f 52 	54 	404
f 52 	404 	403
f 54 	405 	404
f 405 	58 	406
f 407 	406 	98
f 58 	98 	406
f 408 	407 	100
f 98 	100 	407
f 100 	101 	409
f 100 	409 	408
f 123 	855 	856
f 101 	410 	409
f 558 	557 	236
f 564 	563 	236
f 856 	128 	123
f 105 	110 	410
f 590 	564 	236
f 410 	110 	425
f 858 	133 	128
f 594 	238 	595
f 354 	238 	594
f 595 	238 	597
f 597 	238 	599
f 599 	238 	600
f 171 	493 	492
f 494 	197 	495
f 496 	495 	197
f 204 	497 	496
f 204 	162 	497
f 141 	137 	860
f 189 	193 	610
f 454 	452 	624
f 456 	625 	627
f 522 	422 	421
f 456 	627 	628
f 522 	523 	422
f 723 	232 	630
f 638 	639 	471
f 621 	451 	620
f 854 	117 	93
f 156 	158 	446
f 127 	431 	430
f 127 	130 	431
f 413 	516 	416
f 517 	416 	516
f 517 	518 	416
f 489 	211 	713
f 420 	520 	421
f 648 	649 	72
f 646 	549 	853
f 423 	422 	523
f 423 	523 	424
f 832 	562 	559
f 424 	525 	389
f 832 	559 	565
f 47 	655 	656
f 53 	47 	656
f 53 	656 	657
f 657 	658 	59
f 59 	658 	659
f 155 	156 	445
f 492 	446 	158
f 114 	116 	426
f 114 	426 	425
f 72 	661 	648
f 427 	426 	118
f 116 	118 	426
f 529 	882 	528
f 428 	427 	120
f 118 	120 	427
f 429 	428 	122
f 120 	122 	428
f 529 	530 	882
f 883 	882 	530
f 883 	530 	533
f 653 	358 	654
f 652 	358 	653
f 651 	358 	652
f 650 	358 	651
f 649 	358 	650
f 648 	358 	649
f 661 	214 	648
f 660 	214 	661
f 659 	214 	660
f 658 	657 	214
f 657 	656 	214
f 193 	214 	656
f 610 	193 	655
f 656 	655 	193
f 654 	358 	669
f 78 	76 	164
f 78 	164 	81
f 165 	166 	81
f 89 	81 	166
f 92 	89 	167
f 604 	215 	543
f 718 	719 	92
f 644 	852 	602
f 644 	646 	852
f 853 	852 	646
f 663 	699 	662
f 664 	699 	663
f 665 	699 	664
f 677 	238 	678
f 601 	238 	603
f 550 	556 	831
f 603 	238 	671
f 671 	238 	672
f 672 	238 	673
f 832 	565 	834
f 673 	238 	674
f 674 	238 	675
f 675 	238 	676
f 567 	835 	565
f 834 	565 	835
f 676 	238 	677
f 678 	10 	679
f 679 	10 	680
f 836 	835 	569
f 567 	569 	835
f 837 	836 	571
f 569 	571 	836
f 669 	358 	670
f 670 	358 	447
f 837 	571 	572
f 840 	572 	575
f 575 	577 	840
f 632 	465 	631
f 682 	681 	3
f 3 	236 	684
f 688 	686 	236
f 287 	546 	889
f 689 	687 	236
f 666 	700 	665
f 691 	690 	236
f 122 	124 	430
f 122 	430 	429
f 667 	700 	666
f 430 	124 	127
f 693 	692 	236
f 432 	431 	130
f 694 	693 	236
f 433 	432 	132
f 130 	132 	432
f 842 	668 	579
f 132 	135 	433
f 842 	580 	582
f 701 	42 	39
f 845 	582 	584
f 703 	43 	42
f 845 	584 	847
f 586 	847 	584
f 418 	416 	518
f 589 	848 	586
f 847 	586 	848
f 709 	49 	45
f 418 	518 	419
f 519 	419 	518
f 49 	709 	51
f 849 	848 	593
f 589 	593 	848
f 420 	419 	520
f 519 	520 	419
f 598 	850 	593
f 849 	593 	850
f 521 	421 	520
f 711 	489 	713
f 850 	598 	851
f 602 	851 	598
f 489 	711 	714
f 521 	522 	421
f 851 	602 	852
f 162 	160 	74
f 525 	424 	523
f 160 	163 	74
f 76 	74 	163
f 76 	163 	164
f 550 	829 	549
f 509 	389 	525
f 718 	92 	167
f 700 	725 	699
f 699 	716 	712
f 699 	712 	709
f 699 	709 	706
f 699 	706 	703
f 699 	703 	702
f 699 	702 	701
f 96 	92 	719
f 438 	142 	439
f 720 	175 	719
f 831 	556 	562
f 440 	439 	145
f 142 	145 	439
f 143 	140 	930
f 440 	145 	441
f 147 	441 	145
f 147 	150 	442
f 147 	442 	441
f 150 	443 	442
f 443 	153 	444
f 444 	153 	445
f 155 	445 	153
f 446 	445 	156
f 55 	716 	69
f 75 	69 	725
f 721 	725 	69
f 728 	77 	725
f 75 	725 	77
f 77 	728 	80
f 731 	80 	728
f 731 	82 	80
f 84 	735 	88
f 716 	699 	721
f 854 	741 	700
f 738 	91 	88
f 94 	208 	206
f 208 	94 	179
f 741 	854 	93
f 184 	217 	181
f 780 	782 	34
f 217 	184 	187
f 86 	85 	568
f 787 	21 	20
f 24 	21 	787
f 735 	700 	738
f 733 	700 	735
f 731 	700 	733
f 739 	738 	700
f 728 	700 	731
f 741 	739 	700
f 721 	699 	725
f 725 	700 	728
f 171 	492 	158
f 493 	171 	194
f 494 	493 	196
f 194 	196 	493
f 790 	26 	25
f 196 	197 	494
f 198 	496 	197
f 26 	790 	27
f 204 	496 	198
f 35 	34 	782
f 74 	497 	162
f 740 	899 	577
f 4 	752 	1
f 35 	782 	36
f 784 	36 	782
f 574 	576 	182
f 12 	754 	9
f 784 	785 	36
f 20 	36 	785
f 901 	740 	742
f 16 	755 	13
f 182 	576 	578
f 20 	785 	787
f 31 	797 	32
f 901 	742 	743
f 756 	766 	4
f 765 	764 	4
f 764 	763 	4
f 788 	24 	787
f 797 	799 	32
f 788 	789 	24
f 25 	24 	789
f 758 	4 	757
f 25 	789 	790
f 106 	32 	799
f 763 	762 	4
f 107 	106 	802
f 801 	802 	106
f 27 	790 	792
f 757 	4 	759
f 802 	108 	107
f 759 	4 	760
f 209 	587 	588
f 27 	792 	28
f 793 	28 	792
f 747 	908 	746
f 760 	4 	761
f 108 	803 	109
f 793 	794 	28
f 29 	28 	794
f 588 	592 	209
f 102 	109 	807
f 804 	807 	109
f 908 	747 	748
f 761 	4 	762
f 29 	794 	31
f 796 	31 	794
f 796 	797 	31
f 748 	749 	910
f 214 	596 	336
f 63 	102 	758
f 807 	758 	102
f 765 	4 	766
f 757 	64 	63
f 4 	9 	756
f 911 	910 	750
f 749 	750 	910
f 767 	756 	9
f 768 	767 	9
f 911 	750 	751
f 65 	761 	66
f 761 	762 	66
f 108 	802 	803
f 770 	769 	9
f 379 	770 	9
f 769 	768 	9
f 385 	384 	9
f 804 	109 	803
f 380 	379 	9
f 387 	9 	388
f 382 	380 	9
f 384 	382 	9
f 64 	757 	759
f 759 	760 	64
f 223 	609 	611
f 223 	611 	612
f 695 	694 	236
f 696 	695 	236
f 697 	696 	236
f 698 	697 	236
f 561 	558 	236
f 771 	698 	236
f 692 	691 	236
f 690 	689 	236
f 687 	688 	236
f 686 	685 	236
f 684 	683 	3
f 683 	682 	3
f 10 	3 	681
f 680 	10 	681
f 685 	684 	236
f 625 	455 	454
f 455 	625 	456
f 457 	630 	232
f 42 	701 	702
f 42 	702 	703
f 45 	703 	706
f 830 	267 	263
f 45 	706 	709
f 271 	267 	830
f 51 	709 	712
f 51 	712 	55
f 716 	55 	712
f 472 	639 	473
f 640 	620 	473
f 721 	69 	716
f 461 	224 	610
f 394 	863 	395
f 47 	461 	610
f 4 	797 	752
f 753 	752 	537
f 537 	535 	753
f 473 	620 	451
f 451 	621 	452
f 623 	452 	621
f 547 	752 	780
f 545 	752 	547
f 541 	539 	752
f 623 	624 	452
f 780 	752 	782
f 454 	624 	625
f 782 	752 	784
f 784 	752 	785
f 785 	752 	787
f 792 	752 	793
f 456 	628 	457
f 812 	146 	662
f 787 	752 	788
f 628 	630 	457
f 788 	752 	789
f 662 	813 	663
f 789 	752 	790
f 465 	488 	631
f 790 	752 	792
f 796 	752 	797
f 663 	814 	664
f 633 	466 	465
f 633 	465 	632
f 815 	665 	664
f 634 	467 	466
f 634 	466 	633
f 794 	752 	796
f 467 	634 	468
f 635 	468 	634
f 636 	469 	468
f 636 	468 	635
f 818 	667 	666
f 799 	4 	801
f 797 	4 	799
f 793 	752 	794
f 636 	637 	469
f 470 	469 	637
f 667 	818 	819
f 667 	819 	668
f 801 	4 	802
f 807 	4 	758
f 802 	4 	803
f 470 	637 	471
f 638 	471 	637
f 803 	4 	804
f 472 	471 	639
f 804 	4 	807
f 819 	579 	668
f 640 	473 	639
f 753 	532 	531
f 618 	230 	617
f 532 	753 	534
f 534 	753 	535
f 539 	537 	752
f 541 	752 	542
f 626 	273 	622
f 542 	752 	544
f 544 	752 	545
f 47 	610 	655
f 626 	629 	273
f 705 	485 	484
f 704 	705 	484
f 734 	732 	753
f 134 	812 	811
f 485 	705 	486
f 707 	486 	705
f 486 	707 	487
f 708 	487 	707
f 708 	710 	487
f 488 	487 	710
f 710 	631 	488
f 722 	713 	211
f 714 	490 	489
f 715 	491 	490
f 715 	490 	714
f 717 	483 	491
f 717 	491 	715
f 801 	106 	799
f 776 	887 	775
f 483 	717 	484
f 777 	887 	776
f 435 	874 	434
f 774 	887 	773
f 778 	887 	777
f 874 	435 	436
f 779 	887 	778
f 774 	775 	887
f 781 	887 	779
f 502 	500 	237
f 513 	504 	237
f 504 	503 	237
f 502 	237 	503
f 500 	501 	237
f 236 	237 	501
f 501 	499 	236
f 499 	498 	236
f 498 	591 	236
f 591 	590 	236
f 563 	561 	236
f 783 	887 	781
f 757 	63 	758
f 887 	783 	786
f 256 	255 	240
f 268 	266 	240
f 15 	240 	266
f 264 	265 	15
f 314 	313 	15
f 237 	15 	313
f 266 	264 	15
f 6 	15 	237
f 65 	64 	760
f 760 	761 	65
f 795 	699 	791
f 600 	238 	601
f 344 	342 	238
f 240 	238 	331
f 329 	328 	240
f 332 	331 	238
f 345 	344 	238
f 10 	678 	238
f 786 	791 	699
f 798 	699 	795
f 16 	15 	5
f 6 	5 	15
f 800 	699 	798
f 729 	753 	730
f 730 	753 	732
f 536 	885 	533
f 531 	737 	753
f 806 	699 	808
f 805 	699 	806
f 885 	536 	538
f 734 	753 	736
f 809 	699 	805
f 736 	753 	737
f 800 	808 	699
f 810 	699 	809
f 811 	699 	810
f 812 	699 	811
f 8 	753 	5
f 715 	16 	717
f 720 	719 	16
f 718 	167 	16
f 166 	165 	16
f 164 	163 	16
f 5 	704 	16
f 813 	662 	146
f 889 	546 	548
f 662 	699 	812
f 814 	663 	813
f 548 	551 	892
f 630 	753 	723
f 723 	753 	724
f 627 	753 	628
f 815 	664 	814
f 724 	753 	726
f 3 	10 	4
f 726 	753 	727
f 816 	665 	815
f 4 	10 	9
f 752 	236 	2
f 752 	2 	1
f 727 	753 	729
f 8 	7 	237
f 8 	237 	753
f 817 	666 	816
f 665 	816 	666
f 236 	752 	753
f 236 	753 	237
f 895 	560 	85
f 12 	11 	238
f 12 	238 	754
f 666 	817 	818
f 755 	240 	14
f 755 	14 	13
f 240 	755 	754
f 240 	754 	238
f 624 	623 	753
f 638 	5 	639
f 731 	733 	82
f 620 	5 	621
f 435 	434 	241
f 297 	241 	434
f 623 	621 	753
f 896 	298 	296
f 580 	842 	579
f 84 	82 	735
f 733 	735 	82
f 435 	241 	243
f 435 	243 	436
f 624 	753 	625
f 896 	897 	298
f 625 	753 	627
f 628 	753 	630
f 436 	243 	244
f 436 	244 	437
f 738 	88 	735
f 532 	176 	531
f 437 	244 	245
f 437 	245 	524
f 177 	532 	534
f 739 	91 	738
f 524 	245 	247
f 524 	247 	526
f 710 	5 	631
f 632 	631 	5
f 91 	739 	741
f 91 	741 	93
f 534 	178 	177
f 526 	247 	249
f 526 	249 	527
f 535 	178 	534
f 633 	5 	634
f 753 	621 	5
f 251 	528 	527
f 251 	527 	249
f 634 	5 	635
f 635 	5 	636
f 640 	5 	620
f 178 	535 	537
f 253 	529 	528
f 253 	528 	251
f 203 	531 	176
f 636 	5 	637
f 637 	5 	638
f 255 	530 	529
f 255 	529 	253
f 177 	176 	532
f 256 	533 	530
f 256 	530 	255
f 539 	541 	170
f 639 	5 	640
f 537 	168 	178
f 258 	536 	533
f 258 	533 	256
f 168 	537 	169
f 539 	169 	537
f 633 	632 	5
f 704 	5 	705
f 541 	542 	170
f 259 	538 	536
f 259 	536 	258
f 705 	5 	707
f 170 	169 	539
f 707 	5 	708
f 261 	540 	538
f 261 	538 	259
f 542 	172 	170
f 708 	5 	710
f 566 	568 	85
f 542 	544 	172
f 261 	543 	540
f 713 	16 	711
f 715 	714 	16
f 711 	16 	714
f 751 	573 	912
f 704 	717 	16
f 160 	16 	163
f 578 	183 	182
f 164 	16 	165
f 855 	119 	854
f 117 	854 	119
f 183 	578 	581
f 718 	16 	719
f 119 	855 	123
f 186 	581 	583
f 720 	16 	722
f 188 	186 	585
f 188 	585 	587
f 573 	460 	300
f 173 	172 	544
f 713 	722 	16
f 592 	210 	209
f 544 	174 	173
f 545 	174 	544
f 174 	547 	34
f 127 	124 	755
f 124 	122 	754
f 754 	122 	120
f 120 	118 	754
f 141 	861 	144
f 924 	343 	340
f 754 	41 	9
f 385 	9 	387
f 144 	861 	148
f 551 	554 	892
f 148 	864 	152
f 560 	895 	554
f 865 	154 	864
f 152 	864 	154
f 388 	9 	390
f 867 	157 	865
f 154 	865 	157
f 390 	9 	23
f 86 	568 	570
f 157 	867 	159
f 824 	254 	823
f 924 	293 	343
f 161 	925 	121
f 723 	724 	232
f 727 	235 	234
f 727 	729 	235
f 265 	264 	546
f 265 	546 	287
f 546 	264 	266
f 546 	266 	548
f 268 	551 	266
f 548 	266 	551
f 545 	547 	174
f 780 	34 	547
f 263 	827 	828
f 551 	268 	269
f 551 	269 	554
f 853 	549 	829
f 736 	202 	201
f 292 	560 	269
f 554 	269 	560
f 203 	202 	736
f 829 	550 	831
f 560 	292 	294
f 560 	294 	566
f 562 	832 	833
f 295 	568 	294
f 566 	294 	568
f 568 	295 	297
f 568 	297 	570
f 215 	888 	543
f 570 	297 	434
f 608 	218 	605
f 66 	762 	288
f 606 	220 	219
f 606 	219 	607
f 573 	300 	574
f 763 	289 	288
f 837 	572 	838
f 301 	576 	300
f 574 	300 	576
f 838 	572 	840
f 271 	830 	839
f 607 	219 	608
f 303 	578 	301
f 576 	301 	578
f 220 	606 	609
f 271 	839 	841
f 578 	303 	305
f 578 	305 	581
f 766 	282 	291
f 767 	283 	282
f 307 	583 	305
f 581 	305 	583
f 842 	582 	844
f 612 	225 	223
f 284 	283 	768
f 767 	768 	283
f 844 	582 	845
f 583 	307 	308
f 583 	308 	585
f 613 	226 	612
f 225 	612 	226
f 277 	843 	846
f 768 	285 	284
f 310 	587 	308
f 585 	308 	587
f 613 	614 	226
f 227 	226 	614
f 285 	770 	286
f 701 	277 	846
f 587 	310 	311
f 587 	311 	588
f 227 	614 	615
f 312 	592 	311
f 588 	311 	592
f 592 	312 	313
f 592 	313 	596
f 596 	313 	314
f 596 	314 	336
f 315 	543 	261
f 270 	619 	622
f 831 	700 	829
f 622 	273 	270
f 629 	274 	273
f 834 	917 	832
f 833 	832 	917
f 701 	846 	699
f 846 	843 	699
f 841 	786 	843
f 839 	786 	841
f 830 	786 	839
f 699 	843 	786
f 830 	828 	786
f 828 	827 	786
f 827 	826 	786
f 826 	825 	786
f 825 	824 	786
f 824 	823 	786
f 823 	822 	786
f 822 	821 	786
f 821 	820 	786
f 820 	905 	786
f 254 	824 	825
f 836 	917 	835
f 837 	917 	836
f 278 	641 	642
f 834 	835 	917
f 838 	917 	837
f 260 	257 	826
f 642 	643 	278
f 840 	917 	838
f 332 	615 	331
f 844 	700 	842
f 615 	332 	334
f 845 	700 	844
f 668 	700 	667
f 847 	700 	845
f 842 	700 	668
f 848 	700 	847
f 604 	605 	215
f 849 	700 	848
f 850 	700 	849
f 699 	665 	700
f 851 	700 	850
f 852 	700 	851
f 853 	700 	852
f 829 	700 	853
f 562 	833 	831
f 239 	309 	820
f 856 	857 	128
f 239 	820 	242
f 821 	242 	820
f 351 	23 	22
f 315 	604 	543
f 128 	857 	858
f 22 	33 	353
f 822 	246 	242
f 821 	822 	242
f 604 	315 	605
f 320 	605 	315
f 246 	822 	250
f 823 	250 	822
f 607 	322 	606
f 321 	606 	322
f 353 	37 	398
f 823 	254 	250
f 605 	320 	608
f 148 	861 	862
f 322 	607 	608
f 322 	608 	320
f 825 	257 	254
f 276 	274 	641
f 324 	609 	606
f 324 	606 	321
f 825 	826 	257
f 278 	276 	641
f 609 	324 	611
f 326 	611 	324
f 826 	827 	262
f 869 	159 	867
f 328 	612 	611
f 328 	611 	326
f 260 	826 	262
f 871 	161 	869
f 159 	869 	161
f 329 	613 	612
f 329 	612 	328
f 281 	280 	647
f 263 	262 	827
f 613 	329 	331
f 613 	331 	614
f 615 	614 	331
f 263 	828 	830
f 570 	434 	87
f 334 	616 	615
f 436 	876 	874
f 437 	877 	436
f 876 	436 	877
f 337 	617 	334
f 841 	272 	271
f 877 	437 	524
f 877 	524 	878
f 337 	618 	617
f 616 	334 	617
f 866 	887 	863
f 526 	879 	524
f 878 	524 	879
f 841 	843 	272
f 275 	272 	843
f 871 	869 	833
f 833 	917 	871
f 925 	871 	917
f 869 	867 	833
f 867 	865 	833
f 865 	864 	833
f 864 	862 	833
f 831 	833 	862
f 862 	861 	831
f 861 	860 	831
f 860 	859 	831
f 859 	858 	831
f 858 	857 	831
f 857 	856 	831
f 856 	855 	831
f 855 	854 	831
f 700 	831 	854
f 879 	526 	527
f 879 	527 	880
f 618 	337 	619
f 339 	619 	337
f 868 	887 	866
f 843 	277 	275
f 880 	527 	881
f 528 	881 	527
f 281 	863 	887
f 870 	887 	868
f 619 	339 	622
f 341 	622 	339
f 233 	232 	724
f 882 	881 	528
f 872 	887 	870
f 701 	39 	277
f 342 	626 	622
f 342 	622 	341
f 873 	887 	872
f 724 	234 	233
f 770 	379 	286
f 316 	286 	379
f 726 	234 	724
f 533 	884 	883
f 875 	887 	873
f 626 	342 	629
f 344 	629 	342
f 234 	726 	727
f 885 	884 	533
f 380 	317 	316
f 345 	641 	629
f 345 	629 	344
f 538 	886 	885
f 641 	345 	642
f 346 	642 	345
f 886 	538 	888
f 540 	888 	538
f 318 	385 	319
f 347 	643 	642
f 347 	642 	346
f 205 	235 	729
f 540 	543 	888
f 772 	887 	875
f 773 	887 	772
f 319 	387 	349
f 730 	205 	729
f 348 	645 	643
f 348 	643 	347
f 287 	889 	358
f 385 	387 	319
f 889 	548 	890
f 730 	732 	205
f 200 	205 	732
f 645 	348 	647
f 354 	647 	348
f 388 	350 	349
f 890 	548 	892
f 892 	554 	893
f 200 	732 	201
f 734 	201 	732
f 893 	554 	895
f 201 	734 	736
f 352 	351 	22
f 296 	293 	894
f 740 	577 	357
f 575 	515 	577
f 566 	85 	560
f 22 	353 	352
f 740 	357 	360
f 740 	360 	742
f 296 	894 	896
f 203 	736 	737
f 86 	570 	87
f 742 	360 	361
f 742 	361 	743
f 874 	87 	434
f 737 	531 	203
f 743 	361 	363
f 743 	363 	744
f 840 	577 	899
f 744 	363 	365
f 744 	365 	745
f 180 	574 	182
f 899 	740 	901
f 745 	365 	367
f 745 	367 	746
f 743 	902 	901
f 183 	581 	185
f 746 	367 	368
f 746 	368 	747
f 902 	743 	744
f 902 	744 	904
f 185 	581 	186
f 745 	906 	744
f 904 	744 	906
f 747 	368 	448
f 747 	448 	748
f 583 	585 	186
f 746 	907 	745
f 906 	745 	907
f 748 	448 	450
f 748 	450 	749
f 188 	587 	207
f 907 	746 	908
f 749 	450 	458
f 749 	458 	750
f 207 	587 	209
f 748 	909 	908
f 891 	924 	887
f 750 	458 	460
f 750 	460 	751
f 909 	748 	910
f 592 	596 	210
f 210 	596 	212
f 751 	460 	573
f 212 	596 	214
f 911 	751 	912
f 574 	180 	573
f 180 	912 	573
f 900 	898 	786
f 898 	897 	786
f 897 	896 	786
f 896 	894 	786
f 894 	891 	786
f 887 	786 	891
f 903 	900 	786
f 905 	903 	786
f 215 	605 	218
f 901 	917 	899
f 902 	917 	901
f 899 	917 	840
f 904 	917 	902
f 608 	219 	218
f 906 	917 	904
f 609 	222 	220
f 907 	917 	906
f 891 	293 	924
f 223 	222 	609
f 908 	193 	907
f 909 	193 	908
f 891 	894 	293
f 910 	193 	909
f 911 	193 	910
f 357 	577 	515
f 912 	193 	911
f 615 	228 	227
f 819 	771 	579
f 299 	298 	897
f 228 	615 	229
f 616 	229 	615
f 188 	207 	193
f 917 	907 	193
f 180 	193 	912
f 616 	617 	229
f 898 	302 	897
f 299 	897 	302
f 229 	617 	230
f 898 	900 	302
f 304 	302 	900
f 619 	231 	230
f 619 	230 	618
f 903 	306 	900
f 304 	900 	306
f 270 	231 	619
f 871 	925 	161
f 905 	309 	903
f 306 	903 	309
f 126 	925 	926
f 131 	126 	927
f 926 	927 	126
f 629 	641 	274
f 309 	905 	820
f 131 	927 	928
f 928 	929 	140
f 924 	922 	887
f 922 	920 	887
f 920 	919 	887
f 918 	227 	919
f 916 	227 	918
f 915 	227 	916
f 914 	227 	915
f 913 	227 	914
f 512 	227 	913
f 393 	512 	913
f 643 	279 	278
f 140 	929 	930
f 763 	288 	762
f 645 	280 	279
f 645 	279 	643
f 931 	149 	930
f 325 	913 	914
f 646 	591 	549
f 549 	498 	550
f 645 	647 	280
f 931 	921 	149
f 499 	556 	498
f 550 	498 	556
f 325 	914 	915
f 647 	395 	281
f 921 	917 	923
f 931 	917 	921
f 193 	191 	917
f 923 	917 	192
f 559 	562 	500
f 501 	500 	562
f 766 	291 	290
f 876 	464 	874
f 559 	500 	502
f 559 	502 	565
f 766 	756 	282
f 877 	464 	876
f 878 	464 	877
f 282 	756 	767
f 503 	567 	502
f 565 	502 	567
f 87 	874 	464
f 879 	464 	878
f 931 	930 	917
f 930 	929 	917
f 929 	928 	917
f 928 	927 	917
f 917 	927 	926
f 917 	926 	925
f 880 	464 	879
f 567 	503 	504
f 567 	504 	569
f 881 	464 	880
f 768 	769 	285
f 920 	338 	919
f 882 	464 	881
f 513 	571 	504
f 569 	504 	571
f 192 	191 	199
f 769 	770 	285
f 883 	464 	882
f 206 	199 	190
f 191 	190 	199
f 920 	922 	338
f 340 	338 	922
f 514 	572 	513
f 571 	513 	572
f 884 	464 	883
f 380 	316 	379
f 206 	190 	94
f 885 	464 	884
f 572 	514 	515
f 572 	515 	575
f 340 	922 	924
f 888 	464 	886
f 579 	552 	580
f 913 	323 	393
f 885 	886 	464
f 464 	888 	215
f 218 	219 	464
f 222 	223 	464
f 553 	582 	552
f 580 	552 	582
f 890 	464 	889
f 323 	913 	325
f 358 	889 	464
f 892 	464 	890
f 582 	553 	555
f 582 	555 	584
f 327 	325 	915
f 892 	893 	464
f 895 	464 	893
f 557 	586 	555
f 584 	555 	586
f 85 	464 	895
f 327 	915 	330
f 916 	330 	915
f 586 	557 	558
f 586 	558 	589
f 62 	777 	776
f 333 	330 	918
f 916 	918 	330
f 561 	593 	558
f 589 	558 	593
f 593 	561 	563
f 593 	563 	598
f 60 	777 	62
f 918 	919 	333
f 335 	333 	919
f 564 	602 	563
f 598 	563 	602
f 338 	335 	919
f 602 	564 	590
f 602 	590 	644
f 71 	783 	781
f 644 	590 	591
f 644 	591 	646
f 79 	786 	783
f 498 	549 	591
f 786 	79 	83
f 647 	354 	395
f 394 	395 	594
f 594 	395 	354
f 95 	795 	791
f 595 	396 	394
f 595 	394 	594
f 795 	95 	97
f 597 	397 	396
f 597 	396 	595
f 115 	808 	103
f 599 	411 	397
f 599 	397 	597
f 806 	113 	805
f 111 	805 	113
f 600 	412 	411
f 600 	411 	599
f 800 	103 	808
f 601 	414 	412
f 601 	412 	600
f 113 	806 	115
f 808 	115 	806
f 125 	809 	805
f 125 	805 	111
f 603 	415 	414
f 603 	414 	601
f 809 	125 	810
f 129 	810 	125
f 134 	810 	129
f 415 	603 	417
f 671 	417 	603
f 139 	812 	134
f 671 	932 	417
f 672 	932 	671
f 932 	773 	772
f 934 	774 	773
f 934 	775 	774
f 60 	778 	777
f 60 	67 	778
f 779 	778 	67
f 781 	779 	67
f 786 	83 	791
f 97 	798 	795
f 798 	97 	800
f 99 	800 	97
f 99 	103 	800
f 134 	811 	810
f 139 	146 	812
f 317 	380 	382
f 318 	317 	384
f 382 	384 	317
f 318 	384 	385
f 388 	349 	387
f 350 	388 	390
f 351 	350 	23
f 390 	23 	350
f 672 	933 	932
f 41 	398 	37
f 673 	934 	933
f 673 	933 	672
f 863 	281 	395
f 863 	394 	866
f 396 	866 	394
f 934 	673 	935
f 674 	935 	673
f 868 	866 	396
f 675 	936 	935
f 675 	935 	674
f 411 	870 	868
f 412 	872 	870
f 412 	870 	411
f 936 	675 	62
f 676 	62 	675
f 872 	412 	873
f 414 	873 	412
f 415 	875 	873
f 415 	873 	414
f 677 	60 	62
f 677 	62 	676
f 415 	417 	875
f 875 	417 	772
f 678 	67 	60
f 678 	60 	677
f 763 	764 	289
f 290 	289 	765
f 764 	765 	289
f 67 	678 	71
f 679 	71 	678
f 765 	766 	290
f 680 	73 	71
f 680 	71 	679
f 73 	680 	681
f 73 	681 	79
f 682 	83 	681
f 773 	932 	933
f 682 	90 	83
f 79 	681 	83
f 934 	773 	933
f 775 	934 	935
f 90 	682 	95
f 683 	95 	682
f 935 	936 	775
f 776 	775 	936
f 684 	97 	95
f 684 	95 	683
f 62 	776 	936
f 97 	684 	99
f 685 	99 	684
f 99 	685 	103
f 686 	103 	685
f 113 	688 	111
f 687 	111 	688
f 103 	686 	115
f 688 	113 	115
f 688 	115 	686
f 689 	125 	111
f 689 	111 	687
f 690 	129 	125
f 690 	125 	689
f 691 	134 	129
f 691 	129 	690
f 692 	139 	134
f 692 	134 	691
f 139 	692 	146
f 692 	693 	146
f 813 	146 	693
f 694 	814 	813
f 694 	813 	693
f 695 	815 	814
f 695 	814 	694
f 696 	816 	815
f 696 	815 	695
f 816 	696 	697
f 816 	697 	817
f 817 	697 	698
f 817 	698 	818
f 818 	698 	771
f 818 	771 	819
f 552 	579 	771
f 556 	499 	501
f 556 	501 	562
f 336 	314 	287
f 287 	314 	265
# 1872 faces

 #end of obj_0

