# Object Export From Tinkercad Server 2015

mtllib obj.mtl

o obj_0
v -1.7 		-27 		1.3
v -1.7 		-27 		0.8
v -1.7 		-22 		0.8
v -1.7 		-22 		1.3
v -4.7 		-26.578 		1.3
v -8 		-22 		1.3
v -8 		-22 		0.8
v -4.7 		-22.423 		1.3
v -5 		-22.423 		1.3
v -5 		-26.578 		1.3
v -6.703 		-22 		1.047
v -6.703 		-22.423 		1.047
v -2.098 		-22.423 		1.3
v -2.098 		-26.578 		1.3
v -2.998 		-22.423 		1.3
v -2.998 		-22.423 		1.047
v -5.901 		-22.423 		1.047
v -4.7 		-27 		0.8
v -2.248 		-22.548 		1.047
v -8 		-27 		0.8
v -5.901 		-22 		1.047
v -8 		-27 		1.3
v -5.15 		-22.548 		0.8
v -2.098 		-22.423 		1.047
v -6.703 		-27 		1.047
v -6.703 		-27 		1.3
v -7.453 		-22.548 		0.8
v -2.248 		-26.453 		1.047
v -7.603 		-22.423 		1.3
v -6.703 		-22.423 		1.3
v -6.703 		-22 		1.3
v -5.15 		-26.453 		1.047
v -7.453 		-26.453 		1.047
v -5.901 		-22 		1.3
v -5.901 		-22.423 		1.3
v -2.098 		-26.578 		1.047
v -6.703 		-26.578 		1.3
v -6.703 		-26.578 		1.047
v -5.901 		-26.578 		1.047
v -7.453 		-26.453 		0.8
v -5.901 		-27 		1.047
v -5.901 		-27 		1.3
v -5 		-22 		0.8
v -4.55 		-22.548 		1.047
v -4.55 		-22.548 		0.8
v -2.248 		-22.548 		0.8
v -7.603 		-26.578 		1.047
v -2.248 		-26.453 		0.8
v -4.55 		-26.453 		0.8
v -5.15 		-26.453 		0.8
v -7.603 		-26.578 		1.3
v -4.55 		-26.453 		1.047
v -7.603 		-22.423 		1.047
v -3.799 		-22 		1.3
v -3.799 		-22.423 		1.3
v -3.799 		-22.423 		1.047
v -7.453 		-22.548 		1.047
v -3.799 		-22 		1.047
v -5.15 		-22.548 		1.047
v -5 		-26.578 		1.047
v -2.998 		-22 		1.3
v -5 		-22.423 		1.047
v -2.998 		-22 		1.047
v -3.799 		-26.578 		1.3
v -3.799 		-26.578 		1.047
v -4.7 		-26.578 		1.047
v -4.7 		-22.423 		1.047
v -2.998 		-26.578 		1.047
v -2.998 		-26.578 		1.3
v -3.799 		-27 		1.047
v -3.799 		-27 		1.3
v -5.901 		-26.578 		1.3
v -2.998 		-27 		1.3
v -2.998 		-27 		1.047
# 74 vertices

g group_0_15277357

usemtl color_15277357
s 0

f 1 	2 	3
f 1 	3 	4
f 48 	46 	2
f 34 	9 	8
f 5 	8 	9
f 9 	10 	5
f 42 	5 	10
f 14 	1 	13
f 4 	13 	1
f 6 	7 	20
f 6 	20 	22
f 11 	12 	17
f 11 	17 	21
f 29 	30 	31
f 34 	35 	9
f 7 	43 	27
f 38 	39 	33
f 32 	33 	39
f 28 	36 	19
f 24 	19 	36
f 34 	54 	43
f 15 	16 	24
f 15 	24 	13
f 44 	45 	46
f 44 	46 	19
f 41 	39 	38
f 41 	38 	25
f 50 	18 	40
f 26 	37 	51
f 28 	48 	49
f 28 	49 	52
f 20 	18 	25
f 26 	22 	25
f 52 	49 	45
f 52 	45 	44
f 47 	38 	33
f 47 	33 	57
f 47 	57 	53
f 54 	55 	56
f 54 	56 	58
f 40 	20 	27
f 62 	59 	32
f 39 	60 	32
f 62 	32 	60
f 15 	61 	63
f 15 	63 	16
f 19 	46 	48
f 19 	48 	28
f 41 	25 	18
f 42 	41 	18
f 57 	27 	23
f 57 	23 	59
f 20 	40 	18
f 43 	45 	23
f 23 	27 	43
f 34 	43 	21
f 66 	5 	65
f 64 	65 	5
f 7 	27 	20
f 67 	8 	5
f 67 	5 	66
f 32 	50 	40
f 32 	40 	33
f 20 	25 	22
f 45 	43 	46
f 68 	69 	36
f 14 	36 	69
f 33 	40 	27
f 33 	27 	57
f 36 	14 	13
f 36 	13 	24
f 2 	74 	18
f 42 	18 	71
f 21 	43 	11
f 7 	6 	11
f 7 	11 	43
f 72 	42 	10
f 31 	11 	6
f 59 	23 	50
f 59 	50 	32
f 2 	18 	48
f 2 	1 	74
f 12 	30 	53
f 29 	53 	30
f 6 	22 	29
f 31 	6 	29
f 51 	29 	22
f 26 	51 	22
f 18 	50 	49
f 49 	48 	18
f 45 	49 	23
f 3 	46 	43
f 70 	18 	74
f 53 	29 	51
f 53 	51 	47
f 35 	17 	62
f 35 	62 	9
f 8 	55 	54
f 8 	54 	34
f 3 	2 	46
f 64 	71 	70
f 64 	70 	65
f 31 	30 	12
f 31 	12 	11
f 58 	43 	54
f 23 	49 	50
f 60 	10 	9
f 60 	9 	62
f 35 	34 	21
f 35 	21 	17
f 73 	69 	68
f 73 	68 	74
f 61 	4 	63
f 3 	63 	4
f 8 	67 	56
f 8 	56 	55
f 47 	51 	38
f 37 	38 	51
f 61 	15 	13
f 61 	13 	4
f 56 	44 	19
f 24 	16 	19
f 56 	19 	16
f 10 	60 	39
f 10 	39 	72
f 3 	43 	63
f 71 	64 	5
f 71 	5 	42
f 37 	26 	25
f 37 	25 	38
f 58 	56 	16
f 58 	16 	63
f 58 	63 	43
f 69 	73 	14
f 1 	14 	73
f 42 	72 	39
f 42 	39 	41
f 28 	52 	65
f 28 	65 	68
f 28 	68 	36
f 59 	17 	57
f 62 	17 	59
f 17 	12 	57
f 53 	57 	12
f 74 	68 	65
f 74 	65 	70
f 66 	65 	52
f 66 	52 	44
f 56 	67 	44
f 66 	44 	67
f 70 	71 	18
f 73 	74 	1
# 152 faces

 #end of obj_0

