# Object Export From Tinkercad Server 2015

mtllib obj.mtl

o obj_0
v -14.928 		-22.579 		0.248
v -14.928 		-22.579 		0.496
v -14.948 		-22.637 		0.496
v -14.948 		-22.637 		0.248
v -14.906 		-22.521 		0.248
v -14.906 		-22.521 		0.496
v -14.881 		-22.465 		0.248
v -14.881 		-22.465 		0.496
v -14.854 		-22.41 		0.248
v -14.854 		-22.41 		0.496
v -14.824 		-22.357 		0.248
v -14.824 		-22.357 		0.496
v -14.791 		-22.305 		0.248
v -14.791 		-22.305 		0.496
v -14.755 		-22.255 		0.248
v -14.755 		-22.255 		0.496
v -14.718 		-22.207 		0.248
v -14.718 		-22.207 		0.496
v -14.677 		-22.16 		0.248
v -14.677 		-22.16 		0.496
v -14.635 		-22.116 		0.248
v -14.635 		-22.116 		0.496
v -14.591 		-22.073 		0.248
v -14.591 		-22.073 		0.496
v -14.544 		-22.033 		0.248
v -14.544 		-22.033 		0.496
v -16.753 		-22.748 		3.599
v -16.753 		-22.748 		3.394
v -16.753 		-23.253 		3.394
v -16.753 		-23.253 		3.599
v -16.753 		-17.248 		3.747
v -16.753 		-28.753 		3.747
v -16.753 		-28.753 		3.247
v -16.753 		-17.248 		3.247
v -16.753 		-17.248 		3.245
v -16.753 		-28.753 		3.245
v -16.753 		-28.753 		0.496
v -16.753 		-17.248 		0.496
v -16.875 		-22.748 		3.394
v -16.875 		-22.748 		3.599
v -16.875 		-23.253 		3.599
v -16.875 		-23.253 		3.394
v -16.875 		-17.125 		3.747
v -16.875 		-28.875 		3.747
v -16.875 		-17.125 		3.247
v -16.875 		-28.875 		3.247
v -17 		-17 		3.245
v -17 		-29 		3.245
v -10.748 		-22.748 		3.394
v -10.748 		-22.748 		3.599
v -10.748 		-23.253 		3.599
v -10.748 		-23.253 		3.394
v -10.748 		-28.753 		3.747
v -10.748 		-17.248 		3.747
v -10.748 		-17.248 		3.247
v -10.748 		-28.753 		3.247
v -10.748 		-28.753 		3.245
v -10.748 		-17.248 		3.245
v -10.748 		-17.248 		0.496
v -10.748 		-28.753 		0.496
v -10.625 		-22.748 		3.599
v -10.625 		-22.748 		3.394
v -10.625 		-23.253 		3.394
v -10.625 		-23.253 		3.599
v -10.625 		-28.875 		3.747
v -10.625 		-17.125 		3.747
v -10.625 		-28.875 		3.247
v -10.625 		-17.125 		3.247
v -10.5 		-29 		3.245
v -10.5 		-17 		3.245
v -12.866 		-22.116 		0.496
v -12.866 		-22.116 		0.248
v -12.824 		-22.16 		0.248
v -12.824 		-22.16 		0.496
v -12.783 		-22.207 		0.248
v -12.783 		-22.207 		0.496
v -12.746 		-22.255 		0.248
v -12.746 		-22.255 		0.496
v -12.71 		-22.305 		0.248
v -12.71 		-22.305 		0.496
v -12.677 		-22.357 		0.248
v -12.677 		-22.357 		0.496
v -12.647 		-22.41 		0.248
v -12.647 		-22.41 		0.496
v -13.447 		-21.787 		0.248
v -13.447 		-21.787 		0.496
v -13.387 		-21.803 		0.248
v -13.387 		-21.803 		0.496
v -13.329 		-21.823 		0.248
v -13.329 		-21.823 		0.496
v -13.272 		-21.845 		0.248
v -13.272 		-21.845 		0.496
v -13.216 		-21.87 		0.248
v -13.216 		-21.87 		0.496
v -13.161 		-21.897 		0.248
v -13.161 		-21.897 		0.496
v -13.107 		-21.927 		0.248
v -13.107 		-21.927 		0.496
v -13.055 		-21.96 		0.248
v -13.055 		-21.96 		0.496
v -13.005 		-21.996 		0.248
v -13.005 		-21.996 		0.496
v -13.995 		-21.773 		0.248
v -13.995 		-21.773 		0.496
v -13.934 		-21.763 		0.248
v -13.934 		-21.763 		0.496
v -13.873 		-21.755 		0.248
v -13.873 		-21.755 		0.496
v -13.812 		-21.751 		0.248
v -13.812 		-21.751 		0.496
v -13.75 		-21.749 		0.248
v -13.75 		-21.749 		0.496
v -13.689 		-21.751 		0.248
v -13.689 		-21.751 		0.496
v -13.628 		-21.755 		0.248
v -13.628 		-21.755 		0.496
v -13.567 		-21.763 		0.248
v -13.567 		-21.763 		0.496
v -13.506 		-21.773 		0.248
v -13.506 		-21.773 		0.496
v -14.496 		-21.996 		0.248
v -14.496 		-21.996 		0.496
v -14.446 		-21.96 		0.248
v -14.446 		-21.96 		0.496
v -14.394 		-21.927 		0.248
v -14.394 		-21.927 		0.496
v -14.34 		-21.897 		0.248
v -14.34 		-21.897 		0.496
v -14.285 		-21.87 		0.248
v -14.285 		-21.87 		0.496
v -14.229 		-21.845 		0.248
v -14.229 		-21.845 		0.496
v -14.172 		-21.823 		0.248
v -14.172 		-21.823 		0.496
v -14.114 		-21.803 		0.248
v -14.114 		-21.803 		0.496
v -14.054 		-21.787 		0.248
v -14.054 		-21.787 		0.496
v -14.544 		-23.967 		0.248
v -14.544 		-23.967 		0.496
v -14.591 		-23.927 		0.248
v -14.591 		-23.927 		0.496
v -14.635 		-23.884 		0.248
v -14.635 		-23.884 		0.496
v -14.677 		-23.84 		0.248
v -14.677 		-23.84 		0.496
v -14.718 		-23.793 		0.248
v -14.718 		-23.793 		0.496
v -14.755 		-23.745 		0.248
v -14.755 		-23.745 		0.496
v -14.791 		-23.695 		0.248
v -14.791 		-23.695 		0.496
v -14.824 		-23.643 		0.248
v -14.824 		-23.643 		0.496
v -14.854 		-23.59 		0.248
v -14.854 		-23.59 		0.496
v -14.881 		-23.535 		0.248
v -14.881 		-23.535 		0.496
v -14.906 		-23.479 		0.248
v -14.906 		-23.479 		0.496
v -14.928 		-23.421 		0.248
v -14.928 		-23.421 		0.496
v -14.948 		-23.363 		0.248
v -14.948 		-23.363 		0.496
v -14.964 		-23.304 		0.248
v -14.964 		-23.304 		0.496
v -14.978 		-23.244 		0.248
v -14.978 		-23.244 		0.496
v -14.988 		-23.183 		0.248
v -14.988 		-23.183 		0.496
v -14.996 		-23.123 		0.248
v -14.996 		-23.123 		0.496
v -15 		-23.061 		0.248
v -15 		-23.061 		0.496
v -15.002 		-23 		0.248
v -15.002 		-23 		0.496
v -15 		-22.939 		0.248
v -15 		-22.939 		0.496
v -14.996 		-22.877 		0.248
v -14.996 		-22.877 		0.496
v -14.988 		-22.817 		0.248
v -14.988 		-22.817 		0.496
v -14.978 		-22.756 		0.248
v -14.978 		-22.756 		0.496
v -14.964 		-22.696 		0.248
v -14.964 		-22.696 		0.496
v -12.595 		-23.479 		0.248
v -12.595 		-23.479 		0.496
v -12.62 		-23.535 		0.248
v -12.62 		-23.535 		0.496
v -12.647 		-23.59 		0.248
v -12.647 		-23.59 		0.496
v -12.677 		-23.643 		0.248
v -12.677 		-23.643 		0.496
v -12.71 		-23.695 		0.248
v -12.71 		-23.695 		0.496
v -12.746 		-23.745 		0.248
v -12.746 		-23.745 		0.496
v -12.783 		-23.793 		0.248
v -12.783 		-23.793 		0.496
v -12.824 		-23.84 		0.248
v -12.824 		-23.84 		0.496
v -12.866 		-23.884 		0.248
v -12.866 		-23.884 		0.496
v -12.91 		-23.927 		0.248
v -12.91 		-23.927 		0.496
v -12.957 		-23.967 		0.248
v -12.957 		-23.967 		0.496
v -13.005 		-24.004 		0.248
v -13.005 		-24.004 		0.496
v -13.055 		-24.04 		0.248
v -13.055 		-24.04 		0.496
v -13.107 		-24.073 		0.248
v -13.107 		-24.073 		0.496
v -13.161 		-24.103 		0.248
v -13.161 		-24.103 		0.496
v -13.216 		-24.13 		0.248
v -13.216 		-24.13 		0.496
v -13.272 		-24.155 		0.248
v -13.272 		-24.155 		0.496
v -13.329 		-24.177 		0.248
v -13.329 		-24.177 		0.496
v -13.387 		-24.197 		0.248
v -13.387 		-24.197 		0.496
v -13.447 		-24.213 		0.248
v -13.447 		-24.213 		0.496
v -13.812 		-24.249 		0.248
v -13.812 		-24.249 		0.496
v -13.75 		-24.251 		0.496
v -13.75 		-24.251 		0.248
v -13.873 		-24.245 		0.248
v -13.873 		-24.245 		0.496
v -13.934 		-24.237 		0.248
v -13.934 		-24.237 		0.496
v -13.995 		-24.227 		0.248
v -13.995 		-24.227 		0.496
v -13.506 		-24.227 		0.248
v -13.506 		-24.227 		0.496
v -13.567 		-24.237 		0.248
v -13.567 		-24.237 		0.496
v -13.628 		-24.245 		0.248
v -13.628 		-24.245 		0.496
v -13.689 		-24.249 		0.248
v -13.689 		-24.249 		0.496
v -14.054 		-24.213 		0.248
v -14.054 		-24.213 		0.496
v -14.114 		-24.197 		0.248
v -14.114 		-24.197 		0.496
v -14.172 		-24.177 		0.248
v -14.172 		-24.177 		0.496
v -14.229 		-24.155 		0.248
v -14.229 		-24.155 		0.496
v -14.285 		-24.13 		0.248
v -14.285 		-24.13 		0.496
v -14.34 		-24.103 		0.248
v -14.34 		-24.103 		0.496
v -14.394 		-24.073 		0.248
v -14.394 		-24.073 		0.496
v -14.446 		-24.04 		0.248
v -14.446 		-24.04 		0.496
v -14.496 		-24.004 		0.248
v -14.496 		-24.004 		0.496
v -12.499 		-23 		0.248
v -12.499 		-23 		0.496
v -12.501 		-23.061 		0.248
v -12.501 		-23.061 		0.496
v -12.505 		-23.123 		0.248
v -12.505 		-23.123 		0.496
v -12.513 		-23.183 		0.248
v -12.513 		-23.183 		0.496
v -12.523 		-23.244 		0.248
v -12.523 		-23.244 		0.496
v -12.537 		-23.304 		0.248
v -12.537 		-23.304 		0.496
v -12.553 		-23.363 		0.248
v -12.553 		-23.363 		0.496
v -12.573 		-23.421 		0.248
v -12.573 		-23.421 		0.496
v -12.62 		-22.465 		0.248
v -12.62 		-22.465 		0.496
v -12.595 		-22.521 		0.248
v -12.595 		-22.521 		0.496
v -12.573 		-22.579 		0.248
v -12.573 		-22.579 		0.496
v -12.553 		-22.637 		0.248
v -12.553 		-22.637 		0.496
v -12.537 		-22.696 		0.248
v -12.537 		-22.696 		0.496
v -12.523 		-22.756 		0.248
v -12.523 		-22.756 		0.496
v -12.513 		-22.817 		0.248
v -12.513 		-22.817 		0.496
v -12.505 		-22.877 		0.248
v -12.505 		-22.877 		0.496
v -12.501 		-22.939 		0.248
v -12.501 		-22.939 		0.496
v -12.957 		-22.033 		0.248
v -12.957 		-22.033 		0.496
v -12.91 		-22.073 		0.248
v -12.91 		-22.073 		0.496
v -10.5 		-17 		0.248
v -10.5 		-29 		0.248
v -17 		-29 		0.248
v -17 		-17 		0.248
# 304 vertices

g group_0_15277357

usemtl color_15277357
s 0

f 1 	2 	3
f 1 	3 	4
f 5 	6 	2
f 5 	2 	1
f 7 	8 	6
f 7 	6 	5
f 8 	7 	10
f 9 	10 	7
f 11 	12 	10
f 11 	10 	9
f 13 	14 	12
f 13 	12 	11
f 15 	16 	14
f 15 	14 	13
f 17 	18 	16
f 17 	16 	15
f 19 	20 	18
f 19 	18 	17
f 21 	22 	20
f 21 	20 	19
f 22 	21 	23
f 22 	23 	24
f 24 	23 	25
f 24 	25 	26
f 26 	25 	122
f 34 	27 	28
f 32 	33 	30
f 31 	32 	30
f 31 	30 	27
f 31 	27 	34
f 29 	33 	28
f 29 	30 	33
f 34 	28 	33
f 35 	36 	37
f 35 	37 	38
f 43 	45 	40
f 46 	41 	42
f 41 	44 	40
f 46 	44 	41
f 43 	40 	44
f 45 	46 	39
f 39 	40 	45
f 42 	39 	46
f 33 	46 	34
f 45 	34 	46
f 44 	32 	31
f 44 	31 	43
f 39 	28 	27
f 39 	27 	40
f 29 	42 	41
f 29 	41 	30
f 40 	27 	30
f 40 	30 	41
f 42 	29 	28
f 42 	28 	39
f 36 	35 	48
f 47 	48 	35
f 54 	55 	50
f 52 	56 	51
f 53 	54 	50
f 53 	50 	51
f 49 	55 	52
f 49 	50 	55
f 55 	56 	52
f 53 	51 	56
f 57 	58 	59
f 57 	59 	60
f 68 	61 	62
f 63 	64 	67
f 65 	67 	64
f 65 	64 	61
f 68 	66 	61
f 65 	61 	66
f 63 	67 	62
f 67 	68 	62
f 67 	46 	56
f 67 	56 	55
f 45 	68 	55
f 67 	55 	68
f 53 	65 	54
f 66 	54 	65
f 49 	62 	61
f 49 	61 	50
f 63 	52 	51
f 63 	51 	64
f 50 	61 	64
f 50 	64 	51
f 52 	63 	62
f 52 	62 	49
f 70 	58 	69
f 47 	58 	70
f 58 	57 	69
f 71 	72 	73
f 71 	73 	74
f 74 	73 	75
f 74 	75 	76
f 76 	75 	77
f 76 	77 	78
f 78 	77 	79
f 78 	79 	80
f 80 	79 	81
f 80 	81 	82
f 82 	81 	83
f 82 	83 	84
f 84 	83 	280
f 86 	85 	87
f 86 	87 	88
f 88 	87 	89
f 88 	89 	90
f 90 	89 	91
f 90 	91 	92
f 92 	91 	93
f 92 	93 	94
f 94 	93 	95
f 94 	95 	96
f 96 	95 	97
f 96 	97 	98
f 98 	97 	99
f 98 	99 	100
f 100 	99 	101
f 100 	101 	102
f 102 	101 	298
f 104 	103 	105
f 104 	105 	106
f 106 	105 	107
f 106 	107 	108
f 108 	107 	109
f 108 	109 	110
f 110 	109 	111
f 110 	111 	112
f 112 	111 	113
f 112 	113 	114
f 114 	113 	115
f 114 	115 	116
f 116 	115 	117
f 116 	117 	118
f 118 	117 	119
f 118 	119 	120
f 85 	86 	119
f 120 	119 	86
f 122 	25 	121
f 122 	121 	123
f 122 	123 	124
f 124 	123 	125
f 124 	125 	126
f 126 	125 	127
f 126 	127 	128
f 128 	127 	129
f 128 	129 	130
f 130 	129 	131
f 130 	131 	132
f 132 	131 	133
f 132 	133 	134
f 134 	133 	135
f 134 	135 	136
f 136 	135 	137
f 136 	137 	138
f 103 	104 	137
f 138 	137 	104
f 139 	140 	261
f 141 	142 	140
f 141 	140 	139
f 143 	144 	142
f 143 	142 	141
f 145 	146 	144
f 145 	144 	143
f 147 	148 	146
f 147 	146 	145
f 149 	150 	148
f 149 	148 	147
f 151 	152 	150
f 151 	150 	149
f 153 	154 	152
f 153 	152 	151
f 155 	156 	154
f 155 	154 	153
f 157 	158 	156
f 157 	156 	155
f 159 	160 	158
f 159 	158 	157
f 160 	159 	162
f 161 	162 	159
f 163 	164 	162
f 163 	162 	161
f 165 	166 	164
f 165 	164 	163
f 167 	168 	166
f 167 	166 	165
f 169 	170 	168
f 169 	168 	167
f 171 	172 	170
f 171 	170 	169
f 173 	174 	172
f 173 	172 	171
f 174 	173 	175
f 174 	175 	176
f 176 	175 	178
f 177 	178 	175
f 179 	180 	178
f 179 	178 	177
f 181 	182 	180
f 181 	180 	179
f 183 	184 	182
f 183 	182 	181
f 185 	186 	184
f 185 	184 	183
f 4 	3 	186
f 4 	186 	185
f 188 	187 	189
f 188 	189 	190
f 190 	189 	191
f 190 	191 	192
f 192 	191 	193
f 192 	193 	194
f 194 	193 	195
f 194 	195 	196
f 196 	195 	197
f 196 	197 	198
f 198 	197 	199
f 198 	199 	200
f 201 	202 	200
f 201 	200 	199
f 203 	204 	202
f 203 	202 	201
f 205 	206 	204
f 205 	204 	203
f 207 	208 	206
f 207 	206 	205
f 208 	207 	210
f 209 	210 	207
f 211 	212 	210
f 211 	210 	209
f 213 	214 	212
f 213 	212 	211
f 215 	216 	214
f 215 	214 	213
f 217 	218 	216
f 217 	216 	215
f 219 	220 	218
f 219 	218 	217
f 221 	222 	220
f 221 	220 	219
f 223 	224 	222
f 223 	222 	221
f 225 	226 	224
f 225 	224 	223
f 227 	228 	229
f 227 	229 	230
f 231 	232 	228
f 231 	228 	227
f 233 	234 	232
f 233 	232 	231
f 235 	236 	234
f 235 	234 	233
f 226 	225 	238
f 237 	238 	225
f 239 	240 	238
f 239 	238 	237
f 241 	242 	240
f 241 	240 	239
f 243 	244 	242
f 243 	242 	241
f 230 	229 	244
f 230 	244 	243
f 236 	235 	246
f 245 	246 	235
f 247 	248 	246
f 247 	246 	245
f 249 	250 	248
f 249 	248 	247
f 251 	252 	250
f 251 	250 	249
f 253 	254 	252
f 253 	252 	251
f 255 	256 	254
f 255 	254 	253
f 257 	258 	256
f 257 	256 	255
f 259 	260 	258
f 259 	258 	257
f 261 	262 	260
f 261 	260 	259
f 261 	140 	262
f 265 	266 	264
f 265 	264 	263
f 267 	268 	266
f 267 	266 	265
f 269 	270 	268
f 269 	268 	267
f 271 	272 	270
f 271 	270 	269
f 273 	274 	272
f 273 	272 	271
f 275 	276 	274
f 275 	274 	273
f 277 	278 	276
f 277 	276 	275
f 278 	277 	188
f 187 	188 	277
f 280 	83 	279
f 280 	279 	281
f 280 	281 	282
f 282 	281 	283
f 282 	283 	284
f 284 	283 	285
f 284 	285 	286
f 286 	285 	287
f 286 	287 	288
f 288 	287 	289
f 288 	289 	290
f 290 	289 	291
f 290 	291 	292
f 292 	291 	293
f 292 	293 	294
f 294 	293 	295
f 294 	295 	296
f 263 	264 	295
f 296 	295 	264
f 298 	101 	297
f 298 	297 	299
f 298 	299 	300
f 300 	299 	72
f 300 	72 	71
f 110 	38 	108
f 108 	38 	106
f 112 	38 	110
f 118 	59 	116
f 124 	38 	122
f 126 	38 	124
f 128 	38 	126
f 222 	224 	60
f 136 	38 	134
f 224 	226 	60
f 104 	38 	138
f 104 	106 	38
f 138 	38 	136
f 142 	37 	140
f 144 	37 	142
f 146 	37 	144
f 148 	37 	146
f 150 	37 	148
f 234 	37 	232
f 152 	37 	150
f 154 	37 	152
f 158 	37 	156
f 160 	37 	158
f 244 	229 	60
f 242 	244 	60
f 37 	60 	229
f 162 	37 	160
f 246 	37 	236
f 164 	37 	162
f 248 	37 	246
f 234 	236 	37
f 166 	37 	164
f 168 	37 	166
f 172 	37 	170
f 254 	37 	252
f 174 	37 	172
f 256 	37 	254
f 170 	37 	168
f 176 	37 	174
f 258 	37 	256
f 260 	37 	258
f 252 	37 	250
f 262 	37 	260
f 140 	37 	262
f 186 	38 	184
f 2 	38 	3
f 6 	38 	2
f 8 	38 	6
f 276 	60 	274
f 301 	70 	69
f 301 	69 	302
f 303 	48 	47
f 303 	47 	304
f 278 	60 	276
f 272 	274 	60
f 12 	38 	10
f 14 	38 	12
f 16 	38 	14
f 18 	38 	16
f 10 	38 	8
f 284 	59 	282
f 299 	297 	301
f 20 	38 	18
f 286 	59 	284
f 189 	302 	191
f 72 	299 	301
f 22 	38 	20
f 24 	38 	22
f 290 	59 	288
f 280 	282 	59
f 26 	38 	24
f 288 	59 	286
f 77 	301 	79
f 195 	193 	302
f 294 	59 	292
f 197 	195 	302
f 79 	301 	81
f 77 	75 	301
f 122 	38 	26
f 128 	130 	38
f 134 	38 	132
f 201 	199 	302
f 199 	197 	302
f 296 	59 	294
f 264 	59 	296
f 205 	203 	302
f 203 	201 	302
f 300 	59 	298
f 83 	81 	301
f 209 	207 	302
f 207 	205 	302
f 71 	59 	300
f 74 	59 	71
f 76 	59 	74
f 78 	59 	76
f 85 	119 	301
f 209 	302 	211
f 211 	302 	213
f 301 	91 	89
f 89 	87 	301
f 80 	59 	78
f 130 	132 	38
f 114 	59 	112
f 116 	59 	114
f 120 	59 	118
f 215 	213 	302
f 84 	59 	82
f 217 	215 	302
f 219 	217 	302
f 95 	93 	301
f 91 	301 	93
f 221 	219 	302
f 223 	221 	302
f 180 	38 	178
f 178 	38 	176
f 182 	38 	180
f 182 	184 	38
f 3 	38 	186
f 37 	176 	38
f 80 	82 	59
f 280 	59 	84
f 97 	95 	301
f 223 	302 	225
f 88 	59 	86
f 75 	73 	301
f 73 	72 	301
f 297 	101 	301
f 101 	99 	301
f 99 	97 	301
f 302 	303 	230
f 238 	240 	60
f 240 	242 	60
f 37 	229 	228
f 37 	228 	232
f 248 	250 	37
f 156 	37 	154
f 90 	59 	88
f 231 	227 	303
f 105 	103 	304
f 94 	59 	92
f 290 	292 	59
f 266 	60 	264
f 268 	60 	266
f 270 	60 	268
f 272 	60 	270
f 59 	264 	60
f 107 	105 	304
f 96 	59 	94
f 86 	59 	120
f 233 	303 	235
f 109 	107 	304
f 98 	59 	96
f 100 	59 	98
f 92 	59 	90
f 304 	301 	111
f 102 	59 	100
f 113 	111 	301
f 225 	302 	237
f 237 	302 	239
f 115 	113 	301
f 239 	302 	241
f 241 	302 	243
f 298 	59 	102
f 38 	112 	59
f 119 	117 	301
f 117 	115 	301
f 181 	304 	183
f 183 	304 	185
f 247 	303 	249
f 251 	249 	303
f 121 	304 	123
f 185 	304 	4
f 5 	1 	304
f 4 	304 	1
f 127 	125 	304
f 125 	123 	304
f 253 	251 	303
f 257 	303 	259
f 7 	5 	304
f 133 	131 	304
f 261 	259 	303
f 103 	137 	304
f 135 	133 	304
f 137 	135 	304
f 9 	7 	304
f 301 	302 	263
f 11 	9 	304
f 15 	13 	304
f 13 	11 	304
f 139 	261 	303
f 271 	269 	302
f 267 	265 	302
f 19 	17 	304
f 17 	15 	304
f 23 	21 	304
f 21 	19 	304
f 275 	273 	302
f 271 	302 	273
f 143 	141 	303
f 141 	139 	303
f 131 	129 	304
f 129 	127 	304
f 25 	304 	121
f 23 	304 	25
f 193 	191 	302
f 189 	187 	302
f 187 	277 	302
f 277 	275 	302
f 147 	145 	303
f 87 	85 	301
f 111 	109 	304
f 179 	304 	181
f 151 	149 	303
f 149 	147 	303
f 145 	143 	303
f 257 	255 	303
f 255 	253 	303
f 303 	247 	245
f 303 	245 	235
f 227 	230 	303
f 243 	302 	230
f 233 	231 	303
f 269 	267 	302
f 265 	263 	302
f 175 	173 	303
f 304 	175 	303
f 69 	48 	302
f 48 	303 	302
f 304 	47 	70
f 304 	70 	301
f 34 	55 	54
f 34 	54 	31
f 59 	58 	38
f 58 	35 	38
f 55 	34 	45
f 31 	54 	43
f 66 	43 	54
f 66 	68 	43
f 45 	43 	68
f 58 	47 	35
f 32 	53 	33
f 56 	33 	53
f 36 	57 	37
f 60 	37 	57
f 46 	33 	56
f 53 	32 	44
f 53 	44 	65
f 65 	46 	67
f 44 	46 	65
f 36 	48 	57
f 69 	57 	48
f 190 	60 	188
f 278 	188 	60
f 194 	60 	192
f 196 	60 	194
f 198 	60 	196
f 200 	60 	198
f 202 	60 	200
f 204 	60 	202
f 190 	192 	60
f 208 	60 	206
f 204 	206 	60
f 226 	238 	60
f 208 	210 	60
f 210 	212 	60
f 214 	216 	60
f 216 	218 	60
f 218 	220 	60
f 212 	214 	60
f 220 	222 	60
f 151 	303 	153
f 281 	279 	301
f 83 	301 	279
f 157 	155 	303
f 155 	153 	303
f 169 	167 	303
f 159 	157 	303
f 283 	281 	301
f 285 	283 	301
f 303 	161 	159
f 161 	303 	163
f 289 	287 	301
f 287 	285 	301
f 291 	289 	301
f 165 	163 	303
f 301 	263 	295
f 293 	291 	301
f 295 	293 	301
f 167 	165 	303
f 171 	169 	303
f 173 	171 	303
f 304 	179 	177
f 175 	304 	177
# 616 faces

 #end of obj_0

